<mxfile host="app.diagrams.net" modified="2023-05-02T20:11:15.815Z" agent="Mozilla/5.0 (Windows NT 10.0; Win64; x64) AppleWebKit/537.36 (KHTML, like Gecko) Chrome/112.0.0.0 Safari/537.36" etag="dpIqQ8cb_yHMydB8Raoe" version="21.1.9" type="device">
  <diagram name="Página-1" id="TT1XFw7xZXnI7A4OePss">
    <mxGraphModel dx="2298" dy="1827" grid="1" gridSize="10" guides="1" tooltips="1" connect="1" arrows="1" fold="1" page="0" pageScale="1" pageWidth="827" pageHeight="1169" math="0" shadow="0">
      <root>
        <mxCell id="0" />
        <mxCell id="1" parent="0" />
        <mxCell id="AqbFVgR0TqEET9uwso2q-1" value="&lt;div&gt;Cidade&lt;/div&gt;" style="whiteSpace=wrap;html=1;align=center;" parent="1" vertex="1">
          <mxGeometry x="580" y="70" width="100" height="40" as="geometry" />
        </mxCell>
        <mxCell id="AqbFVgR0TqEET9uwso2q-2" value="Agencia" style="whiteSpace=wrap;html=1;align=center;" parent="1" vertex="1">
          <mxGeometry x="580" y="-160" width="100" height="40" as="geometry" />
        </mxCell>
        <mxCell id="AqbFVgR0TqEET9uwso2q-3" value="Hotel" style="whiteSpace=wrap;html=1;align=center;" parent="1" vertex="1">
          <mxGeometry x="930" y="70" width="100" height="40" as="geometry" />
        </mxCell>
        <mxCell id="AqbFVgR0TqEET9uwso2q-5" value="Restaurante Hotel" style="shape=ext;margin=3;double=1;whiteSpace=wrap;html=1;align=center;" parent="1" vertex="1">
          <mxGeometry x="930" y="345" width="100" height="40" as="geometry" />
        </mxCell>
        <mxCell id="AqbFVgR0TqEET9uwso2q-12" value="Museu" style="whiteSpace=wrap;html=1;align=center;" parent="1" vertex="1">
          <mxGeometry x="580" y="300" width="100" height="40" as="geometry" />
        </mxCell>
        <mxCell id="AqbFVgR0TqEET9uwso2q-13" value="Casa de show" style="whiteSpace=wrap;html=1;align=center;" parent="1" vertex="1">
          <mxGeometry x="720" y="560" width="100" height="40" as="geometry" />
        </mxCell>
        <mxCell id="AqbFVgR0TqEET9uwso2q-14" value="Igreja" style="whiteSpace=wrap;html=1;align=center;" parent="1" vertex="1">
          <mxGeometry x="220" y="195" width="100" height="40" as="geometry" />
        </mxCell>
        <mxCell id="AqbFVgR0TqEET9uwso2q-17" value="Fundador" style="whiteSpace=wrap;html=1;align=center;" parent="1" vertex="1">
          <mxGeometry x="580" y="525" width="100" height="40" as="geometry" />
        </mxCell>
        <mxCell id="AqbFVgR0TqEET9uwso2q-18" value="&lt;div&gt;Programação&lt;/div&gt;&lt;div&gt;de Turismo&lt;br&gt;&lt;/div&gt;" style="shape=rhombus;perimeter=rhombusPerimeter;whiteSpace=wrap;html=1;align=center;" parent="1" vertex="1">
          <mxGeometry x="570" y="-30" width="120" height="60" as="geometry" />
        </mxCell>
        <mxCell id="AqbFVgR0TqEET9uwso2q-19" value="" style="endArrow=none;html=1;rounded=0;entryX=0.5;entryY=1;entryDx=0;entryDy=0;" parent="1" target="AqbFVgR0TqEET9uwso2q-2" edge="1">
          <mxGeometry relative="1" as="geometry">
            <mxPoint x="630" y="-100" as="sourcePoint" />
            <mxPoint x="510" y="180" as="targetPoint" />
          </mxGeometry>
        </mxCell>
        <mxCell id="AqbFVgR0TqEET9uwso2q-21" value="Contém" style="shape=rhombus;perimeter=rhombusPerimeter;whiteSpace=wrap;html=1;align=center;" parent="1" vertex="1">
          <mxGeometry x="430" y="190" width="100" height="50" as="geometry" />
        </mxCell>
        <mxCell id="AqbFVgR0TqEET9uwso2q-24" value="" style="endArrow=none;html=1;rounded=0;exitX=1;exitY=0.5;exitDx=0;exitDy=0;entryX=0;entryY=0.5;entryDx=0;entryDy=0;" parent="1" source="unv03cRe8iEazVeVK6jo-7" target="AqbFVgR0TqEET9uwso2q-21" edge="1">
          <mxGeometry relative="1" as="geometry">
            <mxPoint x="260" y="440" as="sourcePoint" />
            <mxPoint x="430" y="440" as="targetPoint" />
            <Array as="points" />
          </mxGeometry>
        </mxCell>
        <mxCell id="AqbFVgR0TqEET9uwso2q-27" value="Contém" style="shape=rhombus;perimeter=rhombusPerimeter;whiteSpace=wrap;html=1;align=center;" parent="1" vertex="1">
          <mxGeometry x="740" y="60" width="120" height="60" as="geometry" />
        </mxCell>
        <mxCell id="AqbFVgR0TqEET9uwso2q-28" value="" style="endArrow=none;html=1;rounded=0;entryX=1;entryY=0.5;entryDx=0;entryDy=0;exitX=0;exitY=0.5;exitDx=0;exitDy=0;" parent="1" source="unv03cRe8iEazVeVK6jo-12" target="AqbFVgR0TqEET9uwso2q-1" edge="1">
          <mxGeometry relative="1" as="geometry">
            <mxPoint x="760" y="90" as="sourcePoint" />
            <mxPoint x="430" y="330" as="targetPoint" />
          </mxGeometry>
        </mxCell>
        <mxCell id="AqbFVgR0TqEET9uwso2q-30" value="Contém" style="shape=rhombus;perimeter=rhombusPerimeter;whiteSpace=wrap;html=1;align=center;" parent="1" vertex="1">
          <mxGeometry x="920" y="185" width="120" height="60" as="geometry" />
        </mxCell>
        <mxCell id="AqbFVgR0TqEET9uwso2q-32" value="" style="endArrow=none;html=1;rounded=0;exitX=0.5;exitY=1;exitDx=0;exitDy=0;entryX=0.5;entryY=0;entryDx=0;entryDy=0;" parent="1" source="unv03cRe8iEazVeVK6jo-13" target="AqbFVgR0TqEET9uwso2q-5" edge="1">
          <mxGeometry relative="1" as="geometry">
            <mxPoint x="980" y="405" as="sourcePoint" />
            <mxPoint x="670" y="515" as="targetPoint" />
            <Array as="points" />
          </mxGeometry>
        </mxCell>
        <mxCell id="AqbFVgR0TqEET9uwso2q-34" value="" style="endArrow=none;html=1;rounded=0;exitX=0.5;exitY=1;exitDx=0;exitDy=0;entryX=0.5;entryY=0;entryDx=0;entryDy=0;" parent="1" source="unv03cRe8iEazVeVK6jo-14" target="AqbFVgR0TqEET9uwso2q-30" edge="1">
          <mxGeometry relative="1" as="geometry">
            <mxPoint x="850" y="365" as="sourcePoint" />
            <mxPoint x="910" y="415" as="targetPoint" />
            <Array as="points" />
          </mxGeometry>
        </mxCell>
        <mxCell id="AqbFVgR0TqEET9uwso2q-35" value="Contém" style="shape=rhombus;perimeter=rhombusPerimeter;whiteSpace=wrap;html=1;align=center;" parent="1" vertex="1">
          <mxGeometry x="570" y="405" width="120" height="60" as="geometry" />
        </mxCell>
        <mxCell id="AqbFVgR0TqEET9uwso2q-36" value="" style="endArrow=none;html=1;rounded=0;exitX=0.5;exitY=0;exitDx=0;exitDy=0;entryX=0.5;entryY=1;entryDx=0;entryDy=0;" parent="1" source="qm8pAxsmq1ro5lEaJwzE-6" target="AqbFVgR0TqEET9uwso2q-35" edge="1">
          <mxGeometry relative="1" as="geometry">
            <mxPoint x="420" y="664.9999999999998" as="sourcePoint" />
            <mxPoint x="650" y="665" as="targetPoint" />
          </mxGeometry>
        </mxCell>
        <mxCell id="AqbFVgR0TqEET9uwso2q-41" value="" style="endArrow=none;html=1;rounded=0;exitX=0.5;exitY=1;exitDx=0;exitDy=0;entryX=0.5;entryY=0;entryDx=0;entryDy=0;" parent="1" source="unv03cRe8iEazVeVK6jo-5" target="AqbFVgR0TqEET9uwso2q-1" edge="1">
          <mxGeometry relative="1" as="geometry">
            <mxPoint x="420" y="230" as="sourcePoint" />
            <mxPoint x="630" y="60" as="targetPoint" />
          </mxGeometry>
        </mxCell>
        <mxCell id="AqbFVgR0TqEET9uwso2q-52" value="" style="endArrow=none;html=1;rounded=0;exitX=0.5;exitY=1;exitDx=0;exitDy=0;entryX=0.5;entryY=0;entryDx=0;entryDy=0;" parent="1" source="qm8pAxsmq1ro5lEaJwzE-5" target="AqbFVgR0TqEET9uwso2q-35" edge="1">
          <mxGeometry relative="1" as="geometry">
            <mxPoint x="420" y="520" as="sourcePoint" />
            <mxPoint x="420" y="529.9999999999998" as="targetPoint" />
          </mxGeometry>
        </mxCell>
        <mxCell id="AqbFVgR0TqEET9uwso2q-69" value="" style="endArrow=none;html=1;rounded=0;exitX=1;exitY=0.5;exitDx=0;exitDy=0;entryX=0;entryY=0.5;entryDx=0;entryDy=0;" parent="1" source="unv03cRe8iEazVeVK6jo-11" target="AqbFVgR0TqEET9uwso2q-3" edge="1">
          <mxGeometry relative="1" as="geometry">
            <mxPoint x="710" y="305" as="sourcePoint" />
            <mxPoint x="930" y="95" as="targetPoint" />
          </mxGeometry>
        </mxCell>
        <mxCell id="m7RQZ_AODKtlvPJroXdu-3" value="Disponibilidade Quarto" style="shape=ext;margin=3;double=1;whiteSpace=wrap;html=1;align=center;" parent="1" vertex="1">
          <mxGeometry x="2000" y="315" width="100" height="40" as="geometry" />
        </mxCell>
        <mxCell id="m7RQZ_AODKtlvPJroXdu-5" value="Reserva Hotel" style="shape=ext;margin=3;double=1;whiteSpace=wrap;html=1;align=center;" parent="1" vertex="1">
          <mxGeometry x="1470" y="-110" width="100" height="40" as="geometry" />
        </mxCell>
        <mxCell id="m7RQZ_AODKtlvPJroXdu-7" value="Cliente Hotel" style="shape=ext;margin=3;double=1;whiteSpace=wrap;html=1;align=center;" parent="1" vertex="1">
          <mxGeometry x="930" y="-280" width="100" height="40" as="geometry" />
        </mxCell>
        <mxCell id="m7RQZ_AODKtlvPJroXdu-12" value="Telefone Cliente" style="shape=ext;margin=3;double=1;whiteSpace=wrap;html=1;align=center;" parent="1" vertex="1">
          <mxGeometry x="930" y="-540" width="100" height="40" as="geometry" />
        </mxCell>
        <mxCell id="m7RQZ_AODKtlvPJroXdu-17" value="Possui" style="shape=rhombus;perimeter=rhombusPerimeter;whiteSpace=wrap;html=1;align=center;" parent="1" vertex="1">
          <mxGeometry x="920" y="-120" width="120" height="60" as="geometry" />
        </mxCell>
        <mxCell id="m7RQZ_AODKtlvPJroXdu-18" value="" style="endArrow=none;html=1;rounded=0;exitX=0.5;exitY=1;exitDx=0;exitDy=0;entryX=0.5;entryY=0;entryDx=0;entryDy=0;" parent="1" source="qm8pAxsmq1ro5lEaJwzE-9" target="AqbFVgR0TqEET9uwso2q-3" edge="1">
          <mxGeometry relative="1" as="geometry">
            <mxPoint x="960" y="45" as="sourcePoint" />
            <mxPoint x="1120" y="45" as="targetPoint" />
          </mxGeometry>
        </mxCell>
        <mxCell id="m7RQZ_AODKtlvPJroXdu-19" value="" style="endArrow=none;html=1;rounded=0;exitX=0.5;exitY=1;exitDx=0;exitDy=0;entryX=0.5;entryY=0;entryDx=0;entryDy=0;" parent="1" source="qm8pAxsmq1ro5lEaJwzE-8" target="m7RQZ_AODKtlvPJroXdu-17" edge="1">
          <mxGeometry relative="1" as="geometry">
            <mxPoint x="910" y="-180" as="sourcePoint" />
            <mxPoint x="980" y="-160" as="targetPoint" />
          </mxGeometry>
        </mxCell>
        <mxCell id="m7RQZ_AODKtlvPJroXdu-20" value="&lt;span style=&quot;border-bottom: 1px dotted&quot;&gt;Id Cliente Hotel&lt;/span&gt;" style="ellipse;whiteSpace=wrap;html=1;align=center;fillColor=#FFB366;" parent="1" vertex="1">
          <mxGeometry x="800" y="-370" width="80" height="30" as="geometry" />
        </mxCell>
        <mxCell id="m7RQZ_AODKtlvPJroXdu-21" value="&lt;span style=&quot;border-bottom: 1px dotted&quot;&gt;CPF&lt;/span&gt;" style="ellipse;whiteSpace=wrap;html=1;align=center;" parent="1" vertex="1">
          <mxGeometry x="800" y="-280" width="80" height="30" as="geometry" />
        </mxCell>
        <mxCell id="m7RQZ_AODKtlvPJroXdu-22" value="&lt;span style=&quot;border-bottom: 1px dotted&quot;&gt;Nome&lt;/span&gt;" style="ellipse;whiteSpace=wrap;html=1;align=center;" parent="1" vertex="1">
          <mxGeometry x="800" y="-240" width="80" height="30" as="geometry" />
        </mxCell>
        <mxCell id="m7RQZ_AODKtlvPJroXdu-23" value="Sobrenome" style="ellipse;whiteSpace=wrap;html=1;align=center;" parent="1" vertex="1">
          <mxGeometry x="800" y="-190" width="80" height="30" as="geometry" />
        </mxCell>
        <mxCell id="m7RQZ_AODKtlvPJroXdu-24" value="&lt;span style=&quot;border-bottom: 1px dotted&quot;&gt;Endereço&lt;/span&gt;" style="ellipse;whiteSpace=wrap;html=1;align=center;" parent="1" vertex="1">
          <mxGeometry x="800" y="-130" width="80" height="30" as="geometry" />
        </mxCell>
        <mxCell id="m7RQZ_AODKtlvPJroXdu-26" value="" style="endArrow=none;html=1;rounded=0;exitX=1;exitY=0.5;exitDx=0;exitDy=0;entryX=0;entryY=0.5;entryDx=0;entryDy=0;" parent="1" source="m7RQZ_AODKtlvPJroXdu-20" target="m7RQZ_AODKtlvPJroXdu-7" edge="1">
          <mxGeometry relative="1" as="geometry">
            <mxPoint x="930" y="-380" as="sourcePoint" />
            <mxPoint x="1090" y="-380" as="targetPoint" />
          </mxGeometry>
        </mxCell>
        <mxCell id="m7RQZ_AODKtlvPJroXdu-27" value="" style="endArrow=none;html=1;rounded=0;exitX=1;exitY=0.5;exitDx=0;exitDy=0;entryX=0;entryY=0.5;entryDx=0;entryDy=0;" parent="1" source="m7RQZ_AODKtlvPJroXdu-21" target="m7RQZ_AODKtlvPJroXdu-7" edge="1">
          <mxGeometry relative="1" as="geometry">
            <mxPoint x="870" y="-240" as="sourcePoint" />
            <mxPoint x="1030" y="-240" as="targetPoint" />
          </mxGeometry>
        </mxCell>
        <mxCell id="m7RQZ_AODKtlvPJroXdu-28" value="" style="endArrow=none;html=1;rounded=0;exitX=1;exitY=0.5;exitDx=0;exitDy=0;entryX=0;entryY=0.5;entryDx=0;entryDy=0;" parent="1" source="m7RQZ_AODKtlvPJroXdu-22" target="m7RQZ_AODKtlvPJroXdu-7" edge="1">
          <mxGeometry relative="1" as="geometry">
            <mxPoint x="870" y="-240" as="sourcePoint" />
            <mxPoint x="1030" y="-240" as="targetPoint" />
          </mxGeometry>
        </mxCell>
        <mxCell id="m7RQZ_AODKtlvPJroXdu-29" value="" style="endArrow=none;html=1;rounded=0;exitX=1;exitY=0.5;exitDx=0;exitDy=0;entryX=0;entryY=0.5;entryDx=0;entryDy=0;" parent="1" source="m7RQZ_AODKtlvPJroXdu-23" target="m7RQZ_AODKtlvPJroXdu-7" edge="1">
          <mxGeometry relative="1" as="geometry">
            <mxPoint x="870" y="-240" as="sourcePoint" />
            <mxPoint x="1030" y="-240" as="targetPoint" />
          </mxGeometry>
        </mxCell>
        <mxCell id="m7RQZ_AODKtlvPJroXdu-30" value="" style="endArrow=none;html=1;rounded=0;exitX=1;exitY=0.5;exitDx=0;exitDy=0;entryX=0;entryY=0.5;entryDx=0;entryDy=0;" parent="1" source="m7RQZ_AODKtlvPJroXdu-24" target="m7RQZ_AODKtlvPJroXdu-7" edge="1">
          <mxGeometry relative="1" as="geometry">
            <mxPoint x="870" y="-240" as="sourcePoint" />
            <mxPoint x="1030" y="-240" as="targetPoint" />
          </mxGeometry>
        </mxCell>
        <mxCell id="m7RQZ_AODKtlvPJroXdu-32" value="Possui" style="shape=rhombus;perimeter=rhombusPerimeter;whiteSpace=wrap;html=1;align=center;" parent="1" vertex="1">
          <mxGeometry x="920" y="-450" width="120" height="60" as="geometry" />
        </mxCell>
        <mxCell id="m7RQZ_AODKtlvPJroXdu-33" value="" style="endArrow=none;html=1;rounded=0;exitX=0.5;exitY=1;exitDx=0;exitDy=0;entryX=0.5;entryY=0;entryDx=0;entryDy=0;" parent="1" source="qm8pAxsmq1ro5lEaJwzE-11" target="m7RQZ_AODKtlvPJroXdu-7" edge="1">
          <mxGeometry relative="1" as="geometry">
            <mxPoint x="980" y="-20" as="sourcePoint" />
            <mxPoint x="1140" y="-20" as="targetPoint" />
          </mxGeometry>
        </mxCell>
        <mxCell id="m7RQZ_AODKtlvPJroXdu-35" value="&lt;span style=&quot;border-bottom: 1px dotted&quot;&gt;Id Cliente&lt;/span&gt;" style="ellipse;whiteSpace=wrap;html=1;align=center;fillColor=#FFB366;" parent="1" vertex="1">
          <mxGeometry x="890" y="-610" width="80" height="30" as="geometry" />
        </mxCell>
        <mxCell id="m7RQZ_AODKtlvPJroXdu-36" value="&lt;span style=&quot;border-bottom: 1px dotted&quot;&gt;Telefone&lt;/span&gt;" style="ellipse;whiteSpace=wrap;html=1;align=center;fillColor=#FFB366;" parent="1" vertex="1">
          <mxGeometry x="990" y="-610" width="80" height="30" as="geometry" />
        </mxCell>
        <mxCell id="m7RQZ_AODKtlvPJroXdu-37" value="" style="endArrow=none;html=1;rounded=0;exitX=0.5;exitY=1;exitDx=0;exitDy=0;entryX=0.5;entryY=0;entryDx=0;entryDy=0;" parent="1" source="m7RQZ_AODKtlvPJroXdu-35" target="m7RQZ_AODKtlvPJroXdu-12" edge="1">
          <mxGeometry relative="1" as="geometry">
            <mxPoint x="800" y="-370" as="sourcePoint" />
            <mxPoint x="960" y="-370" as="targetPoint" />
          </mxGeometry>
        </mxCell>
        <mxCell id="m7RQZ_AODKtlvPJroXdu-38" value="" style="endArrow=none;html=1;rounded=0;entryX=0.5;entryY=1;entryDx=0;entryDy=0;exitX=0.5;exitY=0;exitDx=0;exitDy=0;" parent="1" source="m7RQZ_AODKtlvPJroXdu-12" target="m7RQZ_AODKtlvPJroXdu-36" edge="1">
          <mxGeometry relative="1" as="geometry">
            <mxPoint x="800" y="-370" as="sourcePoint" />
            <mxPoint x="960" y="-370" as="targetPoint" />
          </mxGeometry>
        </mxCell>
        <mxCell id="m7RQZ_AODKtlvPJroXdu-39" value="Faz" style="shape=rhombus;perimeter=rhombusPerimeter;whiteSpace=wrap;html=1;align=center;" parent="1" vertex="1">
          <mxGeometry x="1130" y="-290" width="120" height="60" as="geometry" />
        </mxCell>
        <mxCell id="m7RQZ_AODKtlvPJroXdu-41" value="" style="endArrow=none;html=1;rounded=0;exitX=1;exitY=0.5;exitDx=0;exitDy=0;entryX=0;entryY=0.5;entryDx=0;entryDy=0;" parent="1" source="qm8pAxsmq1ro5lEaJwzE-12" target="m7RQZ_AODKtlvPJroXdu-39" edge="1">
          <mxGeometry relative="1" as="geometry">
            <mxPoint x="1090" y="-190" as="sourcePoint" />
            <mxPoint x="1080" y="-260" as="targetPoint" />
          </mxGeometry>
        </mxCell>
        <mxCell id="m7RQZ_AODKtlvPJroXdu-42" value="" style="endArrow=none;html=1;rounded=0;exitX=1;exitY=0.5;exitDx=0;exitDy=0;entryX=0;entryY=0.5;entryDx=0;entryDy=0;" parent="1" source="qm8pAxsmq1ro5lEaJwzE-13" target="m7RQZ_AODKtlvPJroXdu-5" edge="1">
          <mxGeometry relative="1" as="geometry">
            <mxPoint x="1260" y="-20" as="sourcePoint" />
            <mxPoint x="1420" y="-20" as="targetPoint" />
          </mxGeometry>
        </mxCell>
        <mxCell id="m7RQZ_AODKtlvPJroXdu-43" value="&lt;span style=&quot;border-bottom: 1px dotted&quot;&gt;Id Reserva Hotel&lt;/span&gt;" style="ellipse;whiteSpace=wrap;html=1;align=center;fillColor=#FFB366;" parent="1" vertex="1">
          <mxGeometry x="1370" y="-160" width="80" height="30" as="geometry" />
        </mxCell>
        <mxCell id="m7RQZ_AODKtlvPJroXdu-44" value="Id Cliente Hotel" style="ellipse;whiteSpace=wrap;html=1;align=center;fillColor=#CCCCCC;" parent="1" vertex="1">
          <mxGeometry x="1420" y="-250" width="80" height="30" as="geometry" />
        </mxCell>
        <mxCell id="m7RQZ_AODKtlvPJroXdu-45" value="&lt;span style=&quot;border-bottom: 1px dotted&quot;&gt;Id Categoria&lt;/span&gt;" style="ellipse;whiteSpace=wrap;html=1;align=center;fillColor=#CCCCCC;" parent="1" vertex="1">
          <mxGeometry x="1490" y="-280" width="80" height="30" as="geometry" />
        </mxCell>
        <mxCell id="m7RQZ_AODKtlvPJroXdu-46" value="&lt;span style=&quot;border-bottom: 1px dotted&quot;&gt;Numero Quarto&lt;/span&gt;" style="ellipse;whiteSpace=wrap;html=1;align=center;fillColor=#CCCCCC;" parent="1" vertex="1">
          <mxGeometry x="1550" y="-245" width="80" height="30" as="geometry" />
        </mxCell>
        <mxCell id="m7RQZ_AODKtlvPJroXdu-47" value="&lt;span style=&quot;border-bottom: 1px dotted&quot;&gt;Data Checkin&lt;/span&gt;" style="ellipse;whiteSpace=wrap;html=1;align=center;" parent="1" vertex="1">
          <mxGeometry x="1590" y="-200" width="80" height="30" as="geometry" />
        </mxCell>
        <mxCell id="m7RQZ_AODKtlvPJroXdu-48" value="&lt;span style=&quot;border-bottom: 1px dotted&quot;&gt;Data Checkout&lt;/span&gt;" style="ellipse;whiteSpace=wrap;html=1;align=center;" parent="1" vertex="1">
          <mxGeometry x="1590" y="-150" width="80" height="30" as="geometry" />
        </mxCell>
        <mxCell id="m7RQZ_AODKtlvPJroXdu-49" value="" style="endArrow=none;html=1;rounded=0;exitX=0.5;exitY=1;exitDx=0;exitDy=0;entryX=0.5;entryY=0;entryDx=0;entryDy=0;" parent="1" source="m7RQZ_AODKtlvPJroXdu-43" target="m7RQZ_AODKtlvPJroXdu-5" edge="1">
          <mxGeometry relative="1" as="geometry">
            <mxPoint x="1480" y="-80" as="sourcePoint" />
            <mxPoint x="1640" y="-80" as="targetPoint" />
          </mxGeometry>
        </mxCell>
        <mxCell id="m7RQZ_AODKtlvPJroXdu-50" value="" style="endArrow=none;html=1;rounded=0;exitX=0.5;exitY=1;exitDx=0;exitDy=0;entryX=0.5;entryY=0;entryDx=0;entryDy=0;" parent="1" source="m7RQZ_AODKtlvPJroXdu-44" target="m7RQZ_AODKtlvPJroXdu-5" edge="1">
          <mxGeometry relative="1" as="geometry">
            <mxPoint x="1480" y="-80" as="sourcePoint" />
            <mxPoint x="1640" y="-80" as="targetPoint" />
          </mxGeometry>
        </mxCell>
        <mxCell id="m7RQZ_AODKtlvPJroXdu-51" value="" style="endArrow=none;html=1;rounded=0;exitX=0.5;exitY=1;exitDx=0;exitDy=0;entryX=0.5;entryY=0;entryDx=0;entryDy=0;" parent="1" source="m7RQZ_AODKtlvPJroXdu-45" target="m7RQZ_AODKtlvPJroXdu-5" edge="1">
          <mxGeometry relative="1" as="geometry">
            <mxPoint x="1480" y="-80" as="sourcePoint" />
            <mxPoint x="1640" y="-80" as="targetPoint" />
          </mxGeometry>
        </mxCell>
        <mxCell id="m7RQZ_AODKtlvPJroXdu-52" value="" style="endArrow=none;html=1;rounded=0;exitX=0.5;exitY=1;exitDx=0;exitDy=0;entryX=0.5;entryY=0;entryDx=0;entryDy=0;" parent="1" source="m7RQZ_AODKtlvPJroXdu-46" target="m7RQZ_AODKtlvPJroXdu-5" edge="1">
          <mxGeometry relative="1" as="geometry">
            <mxPoint x="1480" y="-80" as="sourcePoint" />
            <mxPoint x="1640" y="-80" as="targetPoint" />
          </mxGeometry>
        </mxCell>
        <mxCell id="m7RQZ_AODKtlvPJroXdu-53" value="" style="endArrow=none;html=1;rounded=0;entryX=0.5;entryY=1;entryDx=0;entryDy=0;exitX=0.5;exitY=0;exitDx=0;exitDy=0;" parent="1" source="m7RQZ_AODKtlvPJroXdu-5" target="m7RQZ_AODKtlvPJroXdu-47" edge="1">
          <mxGeometry relative="1" as="geometry">
            <mxPoint x="1480" y="-80" as="sourcePoint" />
            <mxPoint x="1640" y="-80" as="targetPoint" />
          </mxGeometry>
        </mxCell>
        <mxCell id="m7RQZ_AODKtlvPJroXdu-54" value="" style="endArrow=none;html=1;rounded=0;entryX=0.5;entryY=1;entryDx=0;entryDy=0;" parent="1" target="m7RQZ_AODKtlvPJroXdu-48" edge="1">
          <mxGeometry relative="1" as="geometry">
            <mxPoint x="1520" y="-110" as="sourcePoint" />
            <mxPoint x="1640" y="-80" as="targetPoint" />
          </mxGeometry>
        </mxCell>
        <mxCell id="m7RQZ_AODKtlvPJroXdu-60" value="&lt;span style=&quot;border-bottom: 1px dotted&quot;&gt;Id Categoria&lt;/span&gt;" style="ellipse;whiteSpace=wrap;html=1;align=center;fillColor=#FFB366;" parent="1" vertex="1">
          <mxGeometry x="1580" y="95" width="80" height="30" as="geometry" />
        </mxCell>
        <mxCell id="m7RQZ_AODKtlvPJroXdu-62" value="&lt;span style=&quot;border-bottom: 1px dotted&quot;&gt;Categoria&lt;/span&gt;" style="ellipse;whiteSpace=wrap;html=1;align=center;" parent="1" vertex="1">
          <mxGeometry x="1640" y="60" width="80" height="30" as="geometry" />
        </mxCell>
        <mxCell id="m7RQZ_AODKtlvPJroXdu-64" value="&lt;span style=&quot;border-bottom: 1px dotted&quot;&gt;Diária Categoria&lt;/span&gt;" style="ellipse;whiteSpace=wrap;html=1;align=center;" parent="1" vertex="1">
          <mxGeometry x="1700" y="95" width="80" height="30" as="geometry" />
        </mxCell>
        <mxCell id="m7RQZ_AODKtlvPJroXdu-67" value="" style="endArrow=none;html=1;rounded=0;exitX=0.5;exitY=1;exitDx=0;exitDy=0;entryX=0.5;entryY=0;entryDx=0;entryDy=0;" parent="1" source="m7RQZ_AODKtlvPJroXdu-60" target="m7RQZ_AODKtlvPJroXdu-2" edge="1">
          <mxGeometry relative="1" as="geometry">
            <mxPoint x="1690" y="155" as="sourcePoint" />
            <mxPoint x="1850" y="155" as="targetPoint" />
          </mxGeometry>
        </mxCell>
        <mxCell id="m7RQZ_AODKtlvPJroXdu-68" value="" style="endArrow=none;html=1;rounded=0;exitX=0.5;exitY=1;exitDx=0;exitDy=0;" parent="1" source="m7RQZ_AODKtlvPJroXdu-62" target="m7RQZ_AODKtlvPJroXdu-2" edge="1">
          <mxGeometry relative="1" as="geometry">
            <mxPoint x="1690" y="155" as="sourcePoint" />
            <mxPoint x="1850" y="155" as="targetPoint" />
          </mxGeometry>
        </mxCell>
        <mxCell id="m7RQZ_AODKtlvPJroXdu-69" value="" style="endArrow=none;html=1;rounded=0;exitX=0.5;exitY=1;exitDx=0;exitDy=0;entryX=0.5;entryY=0;entryDx=0;entryDy=0;" parent="1" source="m7RQZ_AODKtlvPJroXdu-64" target="m7RQZ_AODKtlvPJroXdu-2" edge="1">
          <mxGeometry relative="1" as="geometry">
            <mxPoint x="1690" y="155" as="sourcePoint" />
            <mxPoint x="1850" y="155" as="targetPoint" />
          </mxGeometry>
        </mxCell>
        <mxCell id="m7RQZ_AODKtlvPJroXdu-70" value="&lt;span style=&quot;border-bottom: 1px dotted&quot;&gt;Id Hotel&lt;/span&gt;" style="ellipse;whiteSpace=wrap;html=1;align=center;fillColor=#FFB366;" parent="1" vertex="1">
          <mxGeometry x="1220" y="-15" width="80" height="30" as="geometry" />
        </mxCell>
        <mxCell id="m7RQZ_AODKtlvPJroXdu-71" value="&lt;span style=&quot;border-bottom: 1px dotted&quot;&gt;Id Categoria&lt;/span&gt;" style="ellipse;whiteSpace=wrap;html=1;align=center;fillColor=#FFB366;" parent="1" vertex="1">
          <mxGeometry x="1320" y="-15" width="80" height="30" as="geometry" />
        </mxCell>
        <mxCell id="m7RQZ_AODKtlvPJroXdu-73" value="" style="endArrow=none;html=1;rounded=0;exitX=0.5;exitY=1;exitDx=0;exitDy=0;entryX=0.5;entryY=0;entryDx=0;entryDy=0;" parent="1" source="m7RQZ_AODKtlvPJroXdu-70" target="ZwnwwaySeWqg503XAMPT-4" edge="1">
          <mxGeometry relative="1" as="geometry">
            <mxPoint x="1200" y="75" as="sourcePoint" />
            <mxPoint x="1320" y="45" as="targetPoint" />
          </mxGeometry>
        </mxCell>
        <mxCell id="m7RQZ_AODKtlvPJroXdu-74" value="" style="endArrow=none;html=1;rounded=0;exitX=0.5;exitY=1;exitDx=0;exitDy=0;entryX=0.5;entryY=0;entryDx=0;entryDy=0;" parent="1" source="m7RQZ_AODKtlvPJroXdu-71" target="ZwnwwaySeWqg503XAMPT-4" edge="1">
          <mxGeometry relative="1" as="geometry">
            <mxPoint x="1200" y="75" as="sourcePoint" />
            <mxPoint x="1320" y="44.99999999999977" as="targetPoint" />
          </mxGeometry>
        </mxCell>
        <mxCell id="m7RQZ_AODKtlvPJroXdu-79" value="Possui" style="shape=rhombus;perimeter=rhombusPerimeter;whiteSpace=wrap;html=1;align=center;" parent="1" vertex="1">
          <mxGeometry x="1800" y="305" width="120" height="60" as="geometry" />
        </mxCell>
        <mxCell id="m7RQZ_AODKtlvPJroXdu-84" value="" style="endArrow=none;html=1;rounded=0;exitX=1;exitY=0.5;exitDx=0;exitDy=0;entryX=0;entryY=0.5;entryDx=0;entryDy=0;" parent="1" source="qm8pAxsmq1ro5lEaJwzE-21" target="m7RQZ_AODKtlvPJroXdu-3" edge="1">
          <mxGeometry relative="1" as="geometry">
            <mxPoint x="1820" y="375" as="sourcePoint" />
            <mxPoint x="1980" y="375" as="targetPoint" />
          </mxGeometry>
        </mxCell>
        <mxCell id="m7RQZ_AODKtlvPJroXdu-85" value="&lt;span style=&quot;border-bottom: 1px dotted&quot;&gt;Id Categoria&lt;/span&gt;" style="ellipse;whiteSpace=wrap;html=1;align=center;fillColor=#FFB366;" parent="1" vertex="1">
          <mxGeometry x="2150" y="265" width="80" height="30" as="geometry" />
        </mxCell>
        <mxCell id="m7RQZ_AODKtlvPJroXdu-86" value="&lt;span style=&quot;border-bottom: 1px dotted&quot;&gt;Id Hotel&lt;/span&gt;" style="ellipse;whiteSpace=wrap;html=1;align=center;fillColor=#FFB366;" parent="1" vertex="1">
          <mxGeometry x="2150" y="315" width="80" height="30" as="geometry" />
        </mxCell>
        <mxCell id="m7RQZ_AODKtlvPJroXdu-87" value="Disponibilidade" style="ellipse;whiteSpace=wrap;html=1;align=center;" parent="1" vertex="1">
          <mxGeometry x="2150" y="390" width="80" height="30" as="geometry" />
        </mxCell>
        <mxCell id="m7RQZ_AODKtlvPJroXdu-89" value="" style="endArrow=none;html=1;rounded=0;exitX=1;exitY=0.5;exitDx=0;exitDy=0;entryX=0;entryY=0.5;entryDx=0;entryDy=0;" parent="1" source="m7RQZ_AODKtlvPJroXdu-3" target="m7RQZ_AODKtlvPJroXdu-85" edge="1">
          <mxGeometry relative="1" as="geometry">
            <mxPoint x="2020" y="315" as="sourcePoint" />
            <mxPoint x="2180" y="315" as="targetPoint" />
          </mxGeometry>
        </mxCell>
        <mxCell id="m7RQZ_AODKtlvPJroXdu-90" value="" style="endArrow=none;html=1;rounded=0;exitX=1;exitY=0.5;exitDx=0;exitDy=0;entryX=0;entryY=0.5;entryDx=0;entryDy=0;" parent="1" source="m7RQZ_AODKtlvPJroXdu-3" target="m7RQZ_AODKtlvPJroXdu-86" edge="1">
          <mxGeometry relative="1" as="geometry">
            <mxPoint x="2020" y="315" as="sourcePoint" />
            <mxPoint x="2180" y="315" as="targetPoint" />
          </mxGeometry>
        </mxCell>
        <mxCell id="m7RQZ_AODKtlvPJroXdu-92" value="" style="endArrow=none;html=1;rounded=0;exitX=1;exitY=0.5;exitDx=0;exitDy=0;entryX=0;entryY=0.5;entryDx=0;entryDy=0;" parent="1" source="m7RQZ_AODKtlvPJroXdu-3" target="m7RQZ_AODKtlvPJroXdu-87" edge="1">
          <mxGeometry relative="1" as="geometry">
            <mxPoint x="2020" y="315" as="sourcePoint" />
            <mxPoint x="2180" y="315" as="targetPoint" />
          </mxGeometry>
        </mxCell>
        <mxCell id="DvTU2ww-p_Yc2t4MfeDQ-1" value="&lt;span style=&quot;border-bottom: 1px dotted&quot;&gt;&lt;font style=&quot;font-size: 11px;&quot;&gt;Id Restaurante&lt;/font&gt;&lt;/span&gt;" style="ellipse;whiteSpace=wrap;html=1;align=center;fillColor=#FFB366;" parent="1" vertex="1">
          <mxGeometry x="1050" y="405" width="80" height="30" as="geometry" />
        </mxCell>
        <mxCell id="DvTU2ww-p_Yc2t4MfeDQ-2" value="&lt;span style=&quot;border-bottom: 1px dotted&quot;&gt;Id Hotel&lt;/span&gt;" style="ellipse;whiteSpace=wrap;html=1;align=center;fillColor=#CCCCCC;" parent="1" vertex="1">
          <mxGeometry x="1010" y="445" width="80" height="30" as="geometry" />
        </mxCell>
        <mxCell id="DvTU2ww-p_Yc2t4MfeDQ-3" value="&lt;span style=&quot;border-bottom: 1px dotted&quot;&gt;Nome Restaurante&lt;/span&gt;" style="ellipse;whiteSpace=wrap;html=1;align=center;" parent="1" vertex="1">
          <mxGeometry x="940" y="475" width="80" height="30" as="geometry" />
        </mxCell>
        <mxCell id="DvTU2ww-p_Yc2t4MfeDQ-4" value="&lt;span style=&quot;border-bottom: 1px dotted&quot;&gt;Endereço&lt;/span&gt;" style="ellipse;whiteSpace=wrap;html=1;align=center;" parent="1" vertex="1">
          <mxGeometry x="860" y="445" width="80" height="30" as="geometry" />
        </mxCell>
        <mxCell id="DvTU2ww-p_Yc2t4MfeDQ-5" value="&lt;span style=&quot;border-bottom: 1px dotted&quot;&gt;&lt;font style=&quot;font-size: 10px;&quot;&gt;Categoria Restaurante Hotel&lt;/font&gt;&lt;/span&gt;" style="ellipse;whiteSpace=wrap;html=1;align=center;" parent="1" vertex="1">
          <mxGeometry x="830" y="405" width="80" height="30" as="geometry" />
        </mxCell>
        <mxCell id="DvTU2ww-p_Yc2t4MfeDQ-6" value="" style="endArrow=none;html=1;rounded=0;exitX=0.5;exitY=1;exitDx=0;exitDy=0;entryX=0.422;entryY=-0.007;entryDx=0;entryDy=0;entryPerimeter=0;" parent="1" source="AqbFVgR0TqEET9uwso2q-5" target="DvTU2ww-p_Yc2t4MfeDQ-1" edge="1">
          <mxGeometry relative="1" as="geometry">
            <mxPoint x="880" y="385" as="sourcePoint" />
            <mxPoint x="1040" y="385" as="targetPoint" />
          </mxGeometry>
        </mxCell>
        <mxCell id="DvTU2ww-p_Yc2t4MfeDQ-7" value="" style="endArrow=none;html=1;rounded=0;exitX=0.5;exitY=0;exitDx=0;exitDy=0;entryX=0.5;entryY=1;entryDx=0;entryDy=0;" parent="1" source="DvTU2ww-p_Yc2t4MfeDQ-2" target="AqbFVgR0TqEET9uwso2q-5" edge="1">
          <mxGeometry relative="1" as="geometry">
            <mxPoint x="880" y="385" as="sourcePoint" />
            <mxPoint x="1040" y="385" as="targetPoint" />
          </mxGeometry>
        </mxCell>
        <mxCell id="DvTU2ww-p_Yc2t4MfeDQ-8" value="" style="endArrow=none;html=1;rounded=0;entryX=0.5;entryY=0;entryDx=0;entryDy=0;" parent="1" target="DvTU2ww-p_Yc2t4MfeDQ-3" edge="1">
          <mxGeometry relative="1" as="geometry">
            <mxPoint x="980" y="385" as="sourcePoint" />
            <mxPoint x="1040" y="385" as="targetPoint" />
          </mxGeometry>
        </mxCell>
        <mxCell id="DvTU2ww-p_Yc2t4MfeDQ-9" value="" style="endArrow=none;html=1;rounded=0;entryX=0.5;entryY=0;entryDx=0;entryDy=0;" parent="1" target="DvTU2ww-p_Yc2t4MfeDQ-4" edge="1">
          <mxGeometry relative="1" as="geometry">
            <mxPoint x="980" y="385" as="sourcePoint" />
            <mxPoint x="1040" y="385" as="targetPoint" />
          </mxGeometry>
        </mxCell>
        <mxCell id="DvTU2ww-p_Yc2t4MfeDQ-10" value="" style="endArrow=none;html=1;rounded=0;exitX=0.5;exitY=1;exitDx=0;exitDy=0;entryX=0.5;entryY=0;entryDx=0;entryDy=0;" parent="1" source="AqbFVgR0TqEET9uwso2q-5" target="DvTU2ww-p_Yc2t4MfeDQ-5" edge="1">
          <mxGeometry relative="1" as="geometry">
            <mxPoint x="880" y="385" as="sourcePoint" />
            <mxPoint x="1040" y="385" as="targetPoint" />
          </mxGeometry>
        </mxCell>
        <mxCell id="DvTU2ww-p_Yc2t4MfeDQ-21" value="&lt;span style=&quot;border-bottom: 1px dotted&quot;&gt;Id Hotel&lt;/span&gt;" style="ellipse;whiteSpace=wrap;html=1;align=center;fillColor=#FFB366;" parent="1" vertex="1">
          <mxGeometry x="1070" y="-130" width="80" height="30" as="geometry" />
        </mxCell>
        <mxCell id="DvTU2ww-p_Yc2t4MfeDQ-22" value="&lt;span style=&quot;border-bottom: 1px dotted&quot;&gt;Id Cidade&lt;/span&gt;" style="ellipse;whiteSpace=wrap;html=1;align=center;fillColor=#CCCCCC;" parent="1" vertex="1">
          <mxGeometry x="1070" y="-85" width="80" height="30" as="geometry" />
        </mxCell>
        <mxCell id="DvTU2ww-p_Yc2t4MfeDQ-23" value="&lt;span style=&quot;border-bottom: 1px dotted&quot;&gt;Nome&lt;/span&gt;" style="ellipse;whiteSpace=wrap;html=1;align=center;" parent="1" vertex="1">
          <mxGeometry x="1080" y="-50" width="80" height="30" as="geometry" />
        </mxCell>
        <mxCell id="DvTU2ww-p_Yc2t4MfeDQ-24" value="&lt;span style=&quot;border-bottom: 1px dotted&quot;&gt;Estrelas&lt;/span&gt;" style="ellipse;whiteSpace=wrap;html=1;align=center;" parent="1" vertex="1">
          <mxGeometry x="1080" y="-10" width="80" height="30" as="geometry" />
        </mxCell>
        <mxCell id="DvTU2ww-p_Yc2t4MfeDQ-25" value="&lt;span style=&quot;border-bottom: 1px dotted&quot;&gt;Endereço Hotel&lt;/span&gt;" style="ellipse;whiteSpace=wrap;html=1;align=center;" parent="1" vertex="1">
          <mxGeometry x="1080" y="35" width="80" height="30" as="geometry" />
        </mxCell>
        <mxCell id="DvTU2ww-p_Yc2t4MfeDQ-26" value="" style="endArrow=none;html=1;rounded=0;exitX=1;exitY=0.5;exitDx=0;exitDy=0;entryX=0;entryY=0.5;entryDx=0;entryDy=0;" parent="1" source="AqbFVgR0TqEET9uwso2q-3" target="DvTU2ww-p_Yc2t4MfeDQ-21" edge="1">
          <mxGeometry relative="1" as="geometry">
            <mxPoint x="1000" y="85" as="sourcePoint" />
            <mxPoint x="1160" y="85" as="targetPoint" />
          </mxGeometry>
        </mxCell>
        <mxCell id="DvTU2ww-p_Yc2t4MfeDQ-27" value="" style="endArrow=none;html=1;rounded=0;exitX=1;exitY=0.5;exitDx=0;exitDy=0;entryX=0;entryY=0.5;entryDx=0;entryDy=0;" parent="1" source="AqbFVgR0TqEET9uwso2q-3" target="DvTU2ww-p_Yc2t4MfeDQ-22" edge="1">
          <mxGeometry relative="1" as="geometry">
            <mxPoint x="1000" y="85" as="sourcePoint" />
            <mxPoint x="1160" y="85" as="targetPoint" />
          </mxGeometry>
        </mxCell>
        <mxCell id="DvTU2ww-p_Yc2t4MfeDQ-28" value="" style="endArrow=none;html=1;rounded=0;entryX=0;entryY=0.5;entryDx=0;entryDy=0;" parent="1" target="DvTU2ww-p_Yc2t4MfeDQ-23" edge="1">
          <mxGeometry relative="1" as="geometry">
            <mxPoint x="1030" y="90" as="sourcePoint" />
            <mxPoint x="1160" y="85" as="targetPoint" />
          </mxGeometry>
        </mxCell>
        <mxCell id="DvTU2ww-p_Yc2t4MfeDQ-29" value="" style="endArrow=none;html=1;rounded=0;exitX=1;exitY=0.5;exitDx=0;exitDy=0;entryX=0;entryY=0.5;entryDx=0;entryDy=0;" parent="1" source="AqbFVgR0TqEET9uwso2q-3" target="DvTU2ww-p_Yc2t4MfeDQ-24" edge="1">
          <mxGeometry relative="1" as="geometry">
            <mxPoint x="1000" y="85" as="sourcePoint" />
            <mxPoint x="1160" y="85" as="targetPoint" />
          </mxGeometry>
        </mxCell>
        <mxCell id="DvTU2ww-p_Yc2t4MfeDQ-30" value="" style="endArrow=none;html=1;rounded=0;exitX=1;exitY=0.5;exitDx=0;exitDy=0;entryX=0;entryY=0.5;entryDx=0;entryDy=0;" parent="1" source="AqbFVgR0TqEET9uwso2q-3" target="DvTU2ww-p_Yc2t4MfeDQ-25" edge="1">
          <mxGeometry relative="1" as="geometry">
            <mxPoint x="1000" y="85" as="sourcePoint" />
            <mxPoint x="1160" y="85" as="targetPoint" />
          </mxGeometry>
        </mxCell>
        <mxCell id="DvTU2ww-p_Yc2t4MfeDQ-32" value="&lt;span style=&quot;border-bottom: 1px dotted&quot;&gt;Id Cidade&lt;/span&gt;" style="ellipse;whiteSpace=wrap;html=1;align=center;fillColor=#FFB366;" parent="1" vertex="1">
          <mxGeometry x="440" y="10" width="80" height="30" as="geometry" />
        </mxCell>
        <mxCell id="DvTU2ww-p_Yc2t4MfeDQ-34" value="&lt;span style=&quot;border-bottom: 1px dotted&quot;&gt;Nome&lt;/span&gt;" style="ellipse;whiteSpace=wrap;html=1;align=center;" parent="1" vertex="1">
          <mxGeometry x="440" y="50" width="80" height="30" as="geometry" />
        </mxCell>
        <mxCell id="DvTU2ww-p_Yc2t4MfeDQ-35" value="&lt;span style=&quot;border-bottom: 1px dotted&quot;&gt;Estado&lt;/span&gt;" style="ellipse;whiteSpace=wrap;html=1;align=center;" parent="1" vertex="1">
          <mxGeometry x="440" y="95" width="80" height="30" as="geometry" />
        </mxCell>
        <mxCell id="DvTU2ww-p_Yc2t4MfeDQ-36" value="&lt;span style=&quot;border-bottom: 1px dotted&quot;&gt;População&lt;/span&gt;" style="ellipse;whiteSpace=wrap;html=1;align=center;" parent="1" vertex="1">
          <mxGeometry x="440" y="140" width="80" height="30" as="geometry" />
        </mxCell>
        <mxCell id="DvTU2ww-p_Yc2t4MfeDQ-37" value="" style="endArrow=none;html=1;rounded=0;entryX=0;entryY=0.5;entryDx=0;entryDy=0;exitX=1;exitY=0.5;exitDx=0;exitDy=0;" parent="1" source="DvTU2ww-p_Yc2t4MfeDQ-32" target="AqbFVgR0TqEET9uwso2q-1" edge="1">
          <mxGeometry relative="1" as="geometry">
            <mxPoint x="540" as="sourcePoint" />
            <mxPoint x="700" as="targetPoint" />
          </mxGeometry>
        </mxCell>
        <mxCell id="DvTU2ww-p_Yc2t4MfeDQ-38" value="" style="endArrow=none;html=1;rounded=0;exitX=1;exitY=0.5;exitDx=0;exitDy=0;entryX=0;entryY=0.5;entryDx=0;entryDy=0;" parent="1" source="DvTU2ww-p_Yc2t4MfeDQ-34" target="AqbFVgR0TqEET9uwso2q-1" edge="1">
          <mxGeometry relative="1" as="geometry">
            <mxPoint x="540" as="sourcePoint" />
            <mxPoint x="700" as="targetPoint" />
          </mxGeometry>
        </mxCell>
        <mxCell id="DvTU2ww-p_Yc2t4MfeDQ-39" value="" style="endArrow=none;html=1;rounded=0;exitX=1;exitY=0.5;exitDx=0;exitDy=0;entryX=0;entryY=0.5;entryDx=0;entryDy=0;" parent="1" source="DvTU2ww-p_Yc2t4MfeDQ-35" target="AqbFVgR0TqEET9uwso2q-1" edge="1">
          <mxGeometry relative="1" as="geometry">
            <mxPoint x="540" as="sourcePoint" />
            <mxPoint x="700" as="targetPoint" />
          </mxGeometry>
        </mxCell>
        <mxCell id="DvTU2ww-p_Yc2t4MfeDQ-40" value="" style="endArrow=none;html=1;rounded=0;exitX=1;exitY=0.5;exitDx=0;exitDy=0;entryX=0;entryY=0.5;entryDx=0;entryDy=0;" parent="1" source="DvTU2ww-p_Yc2t4MfeDQ-36" target="AqbFVgR0TqEET9uwso2q-1" edge="1">
          <mxGeometry relative="1" as="geometry">
            <mxPoint x="540" as="sourcePoint" />
            <mxPoint x="700" as="targetPoint" />
          </mxGeometry>
        </mxCell>
        <mxCell id="M4MQRnSDjoWQJ5EsZV3I-1" value="&lt;font style=&quot;vertical-align: inherit;&quot;&gt;&lt;font style=&quot;vertical-align: inherit;&quot;&gt;Restaurante Casa de Show&lt;/font&gt;&lt;/font&gt;" style="shape=ext;margin=3;double=1;whiteSpace=wrap;html=1;align=center;" parent="1" vertex="1">
          <mxGeometry x="720" y="820" width="100" height="40" as="geometry" />
        </mxCell>
        <mxCell id="DvTU2ww-p_Yc2t4MfeDQ-41" value="Contém" style="shape=rhombus;perimeter=rhombusPerimeter;whiteSpace=wrap;html=1;align=center;" parent="1" vertex="1">
          <mxGeometry x="710" y="690" width="120" height="60" as="geometry" />
        </mxCell>
        <mxCell id="DvTU2ww-p_Yc2t4MfeDQ-42" value="" style="endArrow=none;html=1;rounded=0;exitX=0.5;exitY=1;exitDx=0;exitDy=0;entryX=0.5;entryY=0;entryDx=0;entryDy=0;" parent="1" source="qm8pAxsmq1ro5lEaJwzE-1" target="DvTU2ww-p_Yc2t4MfeDQ-41" edge="1">
          <mxGeometry relative="1" as="geometry">
            <mxPoint x="650" y="530" as="sourcePoint" />
            <mxPoint x="720" y="680" as="targetPoint" />
          </mxGeometry>
        </mxCell>
        <mxCell id="M4MQRnSDjoWQJ5EsZV3I-3" value="&lt;span style=&quot;border-bottom: 1px dotted&quot;&gt;Especialidade&lt;/span&gt;" style="ellipse;whiteSpace=wrap;html=1;align=center;" parent="1" vertex="1">
          <mxGeometry x="820" y="880" width="80" height="30" as="geometry" />
        </mxCell>
        <mxCell id="M4MQRnSDjoWQJ5EsZV3I-4" value="&lt;span style=&quot;border-bottom: 1px dotted&quot;&gt;&lt;font style=&quot;vertical-align: inherit;&quot;&gt;&lt;font style=&quot;vertical-align: inherit;&quot;&gt;Preço Médio Refeição&lt;/font&gt;&lt;/font&gt;&lt;/span&gt;" style="ellipse;whiteSpace=wrap;html=1;align=center;" parent="1" vertex="1">
          <mxGeometry x="775" y="930" width="80" height="30" as="geometry" />
        </mxCell>
        <mxCell id="M4MQRnSDjoWQJ5EsZV3I-5" value="&lt;span style=&quot;border-bottom: 1px dotted&quot;&gt;&lt;font style=&quot;vertical-align: inherit;&quot;&gt;&lt;font style=&quot;vertical-align: inherit;&quot;&gt;Id Casa Show&lt;/font&gt;&lt;/font&gt;&lt;/span&gt;" style="ellipse;whiteSpace=wrap;html=1;align=center;fillColor=#CCCCCC;" parent="1" vertex="1">
          <mxGeometry x="685" y="930" width="80" height="30" as="geometry" />
        </mxCell>
        <mxCell id="M4MQRnSDjoWQJ5EsZV3I-9" value="" style="endArrow=none;html=1;rounded=0;entryX=0.5;entryY=0;entryDx=0;entryDy=0;exitX=0.5;exitY=1;exitDx=0;exitDy=0;" parent="1" source="M4MQRnSDjoWQJ5EsZV3I-1" target="M4MQRnSDjoWQJ5EsZV3I-4" edge="1">
          <mxGeometry relative="1" as="geometry">
            <mxPoint x="790" y="880" as="sourcePoint" />
            <mxPoint x="790" y="880" as="targetPoint" />
          </mxGeometry>
        </mxCell>
        <mxCell id="M4MQRnSDjoWQJ5EsZV3I-10" value="" style="endArrow=none;html=1;rounded=0;entryX=0.5;entryY=0;entryDx=0;entryDy=0;exitX=0.5;exitY=1;exitDx=0;exitDy=0;" parent="1" source="M4MQRnSDjoWQJ5EsZV3I-1" target="M4MQRnSDjoWQJ5EsZV3I-5" edge="1">
          <mxGeometry relative="1" as="geometry">
            <mxPoint x="790" y="870" as="sourcePoint" />
            <mxPoint x="790" y="880" as="targetPoint" />
          </mxGeometry>
        </mxCell>
        <mxCell id="DvTU2ww-p_Yc2t4MfeDQ-44" value="" style="endArrow=none;html=1;rounded=0;exitX=0.5;exitY=1;exitDx=0;exitDy=0;entryX=0.5;entryY=0;entryDx=0;entryDy=0;" parent="1" target="M4MQRnSDjoWQJ5EsZV3I-1" edge="1">
          <mxGeometry relative="1" as="geometry">
            <mxPoint x="770" y="790.0000000000002" as="sourcePoint" />
            <mxPoint x="890" y="610" as="targetPoint" />
          </mxGeometry>
        </mxCell>
        <mxCell id="DvTU2ww-p_Yc2t4MfeDQ-45" value="&lt;span style=&quot;border-bottom: 1px dotted&quot;&gt;Id Igreja&lt;/span&gt;" style="ellipse;whiteSpace=wrap;html=1;align=center;fillColor=#FFB366;" parent="1" vertex="1">
          <mxGeometry x="120" y="130" width="80" height="30" as="geometry" />
        </mxCell>
        <mxCell id="DvTU2ww-p_Yc2t4MfeDQ-46" value="&lt;span style=&quot;border-bottom: 1px dotted&quot;&gt;Id Cidade&lt;/span&gt;" style="ellipse;whiteSpace=wrap;html=1;align=center;fillColor=#CCCCCC;" parent="1" vertex="1">
          <mxGeometry x="80" y="165" width="80" height="30" as="geometry" />
        </mxCell>
        <mxCell id="DvTU2ww-p_Yc2t4MfeDQ-47" value="&lt;span style=&quot;border-bottom: 1px dotted&quot;&gt;Descrição Igreja&lt;/span&gt;" style="ellipse;whiteSpace=wrap;html=1;align=center;aspect=fixed;" parent="1" vertex="1">
          <mxGeometry x="20" y="195" width="80" height="35" as="geometry" />
        </mxCell>
        <mxCell id="DvTU2ww-p_Yc2t4MfeDQ-48" value="&lt;span style=&quot;border-bottom: 1px dotted&quot;&gt;Endereço Igreja&lt;/span&gt;" style="ellipse;whiteSpace=wrap;html=1;align=center;" parent="1" vertex="1">
          <mxGeometry x="20" y="235" width="80" height="30" as="geometry" />
        </mxCell>
        <mxCell id="DvTU2ww-p_Yc2t4MfeDQ-49" value="&lt;span style=&quot;border-bottom: 1px dotted&quot;&gt;Data Construção&lt;/span&gt;" style="ellipse;whiteSpace=wrap;html=1;align=center;" parent="1" vertex="1">
          <mxGeometry x="80" y="265" width="80" height="30" as="geometry" />
        </mxCell>
        <mxCell id="DvTU2ww-p_Yc2t4MfeDQ-50" value="&lt;span style=&quot;border-bottom: 1px dotted&quot;&gt;Estilo Construção&lt;/span&gt;" style="ellipse;whiteSpace=wrap;html=1;align=center;" parent="1" vertex="1">
          <mxGeometry x="120" y="300" width="80" height="30" as="geometry" />
        </mxCell>
        <mxCell id="DvTU2ww-p_Yc2t4MfeDQ-51" value="" style="endArrow=none;html=1;rounded=0;exitX=1;exitY=0.5;exitDx=0;exitDy=0;entryX=0;entryY=0.25;entryDx=0;entryDy=0;" parent="1" source="DvTU2ww-p_Yc2t4MfeDQ-45" target="AqbFVgR0TqEET9uwso2q-14" edge="1">
          <mxGeometry relative="1" as="geometry">
            <mxPoint x="150" y="240" as="sourcePoint" />
            <mxPoint x="230" y="190" as="targetPoint" />
          </mxGeometry>
        </mxCell>
        <mxCell id="DvTU2ww-p_Yc2t4MfeDQ-52" value="" style="endArrow=none;html=1;rounded=0;exitX=1;exitY=0.5;exitDx=0;exitDy=0;entryX=0;entryY=0.5;entryDx=0;entryDy=0;" parent="1" source="DvTU2ww-p_Yc2t4MfeDQ-46" target="AqbFVgR0TqEET9uwso2q-14" edge="1">
          <mxGeometry relative="1" as="geometry">
            <mxPoint x="150" y="240" as="sourcePoint" />
            <mxPoint x="230" y="190" as="targetPoint" />
          </mxGeometry>
        </mxCell>
        <mxCell id="DvTU2ww-p_Yc2t4MfeDQ-53" value="" style="endArrow=none;html=1;rounded=0;exitX=1;exitY=0.5;exitDx=0;exitDy=0;entryX=0;entryY=0.5;entryDx=0;entryDy=0;" parent="1" source="DvTU2ww-p_Yc2t4MfeDQ-47" target="AqbFVgR0TqEET9uwso2q-14" edge="1">
          <mxGeometry relative="1" as="geometry">
            <mxPoint x="150" y="240" as="sourcePoint" />
            <mxPoint x="220" y="210" as="targetPoint" />
          </mxGeometry>
        </mxCell>
        <mxCell id="DvTU2ww-p_Yc2t4MfeDQ-54" value="" style="endArrow=none;html=1;rounded=0;exitX=1;exitY=0.5;exitDx=0;exitDy=0;entryX=0;entryY=0.5;entryDx=0;entryDy=0;" parent="1" source="DvTU2ww-p_Yc2t4MfeDQ-48" target="AqbFVgR0TqEET9uwso2q-14" edge="1">
          <mxGeometry relative="1" as="geometry">
            <mxPoint x="150" y="240" as="sourcePoint" />
            <mxPoint x="230" y="190" as="targetPoint" />
          </mxGeometry>
        </mxCell>
        <mxCell id="DvTU2ww-p_Yc2t4MfeDQ-55" value="" style="endArrow=none;html=1;rounded=0;exitX=1;exitY=0.5;exitDx=0;exitDy=0;entryX=0;entryY=0.75;entryDx=0;entryDy=0;" parent="1" source="DvTU2ww-p_Yc2t4MfeDQ-49" target="AqbFVgR0TqEET9uwso2q-14" edge="1">
          <mxGeometry relative="1" as="geometry">
            <mxPoint x="150" y="240" as="sourcePoint" />
            <mxPoint x="230" y="190" as="targetPoint" />
          </mxGeometry>
        </mxCell>
        <mxCell id="DvTU2ww-p_Yc2t4MfeDQ-56" value="" style="endArrow=none;html=1;rounded=0;exitX=1;exitY=0.5;exitDx=0;exitDy=0;entryX=0;entryY=0.75;entryDx=0;entryDy=0;" parent="1" source="DvTU2ww-p_Yc2t4MfeDQ-50" target="AqbFVgR0TqEET9uwso2q-14" edge="1">
          <mxGeometry relative="1" as="geometry">
            <mxPoint x="150" y="240" as="sourcePoint" />
            <mxPoint x="230" y="190" as="targetPoint" />
          </mxGeometry>
        </mxCell>
        <mxCell id="DvTU2ww-p_Yc2t4MfeDQ-59" value="&lt;span style=&quot;border-bottom: 1px dotted&quot;&gt;Id Museu&lt;/span&gt;" style="ellipse;whiteSpace=wrap;html=1;align=center;fillColor=#FFB366;" parent="1" vertex="1">
          <mxGeometry x="440" y="260" width="80" height="30" as="geometry" />
        </mxCell>
        <mxCell id="DvTU2ww-p_Yc2t4MfeDQ-60" value="&lt;span style=&quot;border-bottom: 1px dotted&quot;&gt;Id Cidade&lt;/span&gt;" style="ellipse;whiteSpace=wrap;html=1;align=center;fillColor=#CCCCCC;" parent="1" vertex="1">
          <mxGeometry x="440" y="300" width="80" height="30" as="geometry" />
        </mxCell>
        <mxCell id="DvTU2ww-p_Yc2t4MfeDQ-61" value="&lt;span style=&quot;border-bottom: 1px dotted&quot;&gt;Descrição Musel&lt;/span&gt;" style="ellipse;whiteSpace=wrap;html=1;align=center;" parent="1" vertex="1">
          <mxGeometry x="440" y="340" width="80" height="30" as="geometry" />
        </mxCell>
        <mxCell id="DvTU2ww-p_Yc2t4MfeDQ-63" value="&lt;span style=&quot;border-bottom: 1px dotted&quot;&gt;Endereço Museu&lt;/span&gt;" style="ellipse;whiteSpace=wrap;html=1;align=center;" parent="1" vertex="1">
          <mxGeometry x="440" y="380" width="80" height="30" as="geometry" />
        </mxCell>
        <mxCell id="DvTU2ww-p_Yc2t4MfeDQ-64" value="&lt;span style=&quot;border-bottom: 1px dotted&quot;&gt;Data Função&lt;/span&gt;" style="ellipse;whiteSpace=wrap;html=1;align=center;" parent="1" vertex="1">
          <mxGeometry x="440" y="420" width="80" height="30" as="geometry" />
        </mxCell>
        <mxCell id="DvTU2ww-p_Yc2t4MfeDQ-65" value="&lt;span style=&quot;border-bottom: 1px dotted&quot;&gt;Numero Salas&lt;/span&gt;" style="ellipse;whiteSpace=wrap;html=1;align=center;" parent="1" vertex="1">
          <mxGeometry x="440" y="460" width="80" height="30" as="geometry" />
        </mxCell>
        <mxCell id="DvTU2ww-p_Yc2t4MfeDQ-66" value="" style="endArrow=none;html=1;rounded=0;entryX=0;entryY=0.5;entryDx=0;entryDy=0;exitX=1;exitY=0.5;exitDx=0;exitDy=0;" parent="1" source="DvTU2ww-p_Yc2t4MfeDQ-59" target="AqbFVgR0TqEET9uwso2q-12" edge="1">
          <mxGeometry relative="1" as="geometry">
            <mxPoint x="430" y="600" as="sourcePoint" />
            <mxPoint x="590" y="600" as="targetPoint" />
          </mxGeometry>
        </mxCell>
        <mxCell id="DvTU2ww-p_Yc2t4MfeDQ-67" value="" style="endArrow=none;html=1;rounded=0;entryX=0;entryY=0.5;entryDx=0;entryDy=0;exitX=1;exitY=0.5;exitDx=0;exitDy=0;" parent="1" source="DvTU2ww-p_Yc2t4MfeDQ-60" target="AqbFVgR0TqEET9uwso2q-12" edge="1">
          <mxGeometry relative="1" as="geometry">
            <mxPoint x="430" y="600" as="sourcePoint" />
            <mxPoint x="590" y="600" as="targetPoint" />
          </mxGeometry>
        </mxCell>
        <mxCell id="DvTU2ww-p_Yc2t4MfeDQ-68" value="" style="endArrow=none;html=1;rounded=0;entryX=0;entryY=0.5;entryDx=0;entryDy=0;exitX=1;exitY=0.5;exitDx=0;exitDy=0;" parent="1" source="DvTU2ww-p_Yc2t4MfeDQ-61" target="AqbFVgR0TqEET9uwso2q-12" edge="1">
          <mxGeometry relative="1" as="geometry">
            <mxPoint x="430" y="600" as="sourcePoint" />
            <mxPoint x="590" y="600" as="targetPoint" />
          </mxGeometry>
        </mxCell>
        <mxCell id="DvTU2ww-p_Yc2t4MfeDQ-69" value="" style="endArrow=none;html=1;rounded=0;exitX=1;exitY=0.5;exitDx=0;exitDy=0;" parent="1" source="DvTU2ww-p_Yc2t4MfeDQ-63" edge="1">
          <mxGeometry relative="1" as="geometry">
            <mxPoint x="430" y="600" as="sourcePoint" />
            <mxPoint x="580" y="320" as="targetPoint" />
          </mxGeometry>
        </mxCell>
        <mxCell id="DvTU2ww-p_Yc2t4MfeDQ-70" value="" style="endArrow=none;html=1;rounded=0;entryX=0;entryY=0.5;entryDx=0;entryDy=0;exitX=1;exitY=0.5;exitDx=0;exitDy=0;" parent="1" source="DvTU2ww-p_Yc2t4MfeDQ-64" target="AqbFVgR0TqEET9uwso2q-12" edge="1">
          <mxGeometry relative="1" as="geometry">
            <mxPoint x="430" y="600" as="sourcePoint" />
            <mxPoint x="590" y="600" as="targetPoint" />
          </mxGeometry>
        </mxCell>
        <mxCell id="DvTU2ww-p_Yc2t4MfeDQ-71" value="" style="endArrow=none;html=1;rounded=0;exitX=1;exitY=0.5;exitDx=0;exitDy=0;" parent="1" source="DvTU2ww-p_Yc2t4MfeDQ-65" edge="1">
          <mxGeometry relative="1" as="geometry">
            <mxPoint x="430" y="600" as="sourcePoint" />
            <mxPoint x="580" y="320" as="targetPoint" />
          </mxGeometry>
        </mxCell>
        <mxCell id="DvTU2ww-p_Yc2t4MfeDQ-74" value="&lt;span style=&quot;border-bottom: 1px dotted&quot;&gt;Id Fundador&lt;/span&gt;" style="ellipse;whiteSpace=wrap;html=1;align=center;fillColor=#FFB366;" parent="1" vertex="1">
          <mxGeometry x="350" y="590" width="80" height="30" as="geometry" />
        </mxCell>
        <mxCell id="DvTU2ww-p_Yc2t4MfeDQ-75" value="&lt;span style=&quot;border-bottom: 1px dotted&quot;&gt;Id Museu&lt;/span&gt;" style="ellipse;whiteSpace=wrap;html=1;align=center;fillColor=#CCCCCC;" parent="1" vertex="1">
          <mxGeometry x="350" y="630" width="80" height="30" as="geometry" />
        </mxCell>
        <mxCell id="DvTU2ww-p_Yc2t4MfeDQ-76" value="&lt;span style=&quot;border-bottom: 1px dotted&quot;&gt;Nome Fundador&lt;/span&gt;" style="ellipse;whiteSpace=wrap;html=1;align=center;" parent="1" vertex="1">
          <mxGeometry x="350" y="670" width="80" height="30" as="geometry" />
        </mxCell>
        <mxCell id="DvTU2ww-p_Yc2t4MfeDQ-77" value="&lt;span style=&quot;border-bottom: 1px dotted&quot;&gt;Data Nascimento&lt;/span&gt;" style="ellipse;whiteSpace=wrap;html=1;align=center;" parent="1" vertex="1">
          <mxGeometry x="350" y="705" width="80" height="30" as="geometry" />
        </mxCell>
        <mxCell id="DvTU2ww-p_Yc2t4MfeDQ-78" value="&lt;span style=&quot;border-bottom: 1px dotted&quot;&gt;Data Morte&lt;/span&gt;" style="ellipse;whiteSpace=wrap;html=1;align=center;" parent="1" vertex="1">
          <mxGeometry x="440" y="705" width="80" height="30" as="geometry" />
        </mxCell>
        <mxCell id="DvTU2ww-p_Yc2t4MfeDQ-79" value="&lt;span style=&quot;border-bottom: 1px dotted&quot;&gt;Nacionalidade&lt;/span&gt;" style="ellipse;whiteSpace=wrap;html=1;align=center;" parent="1" vertex="1">
          <mxGeometry x="530" y="705" width="80" height="30" as="geometry" />
        </mxCell>
        <mxCell id="DvTU2ww-p_Yc2t4MfeDQ-82" value="&lt;span style=&quot;border-bottom: 1px dotted&quot;&gt;Atividade Profissional&lt;/span&gt;" style="ellipse;whiteSpace=wrap;html=1;align=center;" parent="1" vertex="1">
          <mxGeometry x="620" y="705" width="80" height="30" as="geometry" />
        </mxCell>
        <mxCell id="M4MQRnSDjoWQJ5EsZV3I-15" value="&lt;span style=&quot;border-bottom: 1px dotted&quot;&gt;Endereço Casa Show&lt;/span&gt;" style="ellipse;whiteSpace=wrap;html=1;align=center;" parent="1" vertex="1">
          <mxGeometry x="945" y="680" width="80" height="30" as="geometry" />
        </mxCell>
        <mxCell id="M4MQRnSDjoWQJ5EsZV3I-16" value="&lt;span style=&quot;border-bottom: 1px dotted&quot;&gt;Inicio Show&lt;/span&gt;" style="ellipse;whiteSpace=wrap;html=1;align=center;" parent="1" vertex="1">
          <mxGeometry x="945" y="730" width="80" height="30" as="geometry" />
        </mxCell>
        <mxCell id="DvTU2ww-p_Yc2t4MfeDQ-83" value="" style="endArrow=none;html=1;rounded=0;exitX=0.5;exitY=1;exitDx=0;exitDy=0;entryX=1;entryY=0;entryDx=0;entryDy=0;" parent="1" source="AqbFVgR0TqEET9uwso2q-17" target="DvTU2ww-p_Yc2t4MfeDQ-74" edge="1">
          <mxGeometry relative="1" as="geometry">
            <mxPoint x="490" y="585" as="sourcePoint" />
            <mxPoint x="650" y="585" as="targetPoint" />
          </mxGeometry>
        </mxCell>
        <mxCell id="M4MQRnSDjoWQJ5EsZV3I-17" value="" style="endArrow=none;html=1;rounded=0;entryX=0;entryY=0.5;entryDx=0;entryDy=0;" parent="1" target="M4MQRnSDjoWQJ5EsZV3I-12" edge="1">
          <mxGeometry relative="1" as="geometry">
            <mxPoint x="820" y="580" as="sourcePoint" />
            <mxPoint x="910" y="590" as="targetPoint" />
          </mxGeometry>
        </mxCell>
        <mxCell id="DvTU2ww-p_Yc2t4MfeDQ-88" value="" style="endArrow=none;html=1;rounded=0;entryX=0.5;entryY=1;entryDx=0;entryDy=0;exitX=1;exitY=0;exitDx=0;exitDy=0;" parent="1" source="DvTU2ww-p_Yc2t4MfeDQ-75" target="AqbFVgR0TqEET9uwso2q-17" edge="1">
          <mxGeometry relative="1" as="geometry">
            <mxPoint x="510" y="645" as="sourcePoint" />
            <mxPoint x="650" y="585" as="targetPoint" />
          </mxGeometry>
        </mxCell>
        <mxCell id="M4MQRnSDjoWQJ5EsZV3I-18" value="" style="endArrow=none;html=1;rounded=0;entryX=0;entryY=0.5;entryDx=0;entryDy=0;exitX=1;exitY=0.5;exitDx=0;exitDy=0;" parent="1" source="AqbFVgR0TqEET9uwso2q-13" target="M4MQRnSDjoWQJ5EsZV3I-13" edge="1">
          <mxGeometry relative="1" as="geometry">
            <mxPoint x="840" y="595" as="sourcePoint" />
            <mxPoint x="910" y="590" as="targetPoint" />
          </mxGeometry>
        </mxCell>
        <mxCell id="DvTU2ww-p_Yc2t4MfeDQ-89" value="" style="endArrow=none;html=1;rounded=0;exitX=1;exitY=0;exitDx=0;exitDy=0;" parent="1" source="DvTU2ww-p_Yc2t4MfeDQ-76" edge="1">
          <mxGeometry relative="1" as="geometry">
            <mxPoint x="490" y="585" as="sourcePoint" />
            <mxPoint x="630" y="565" as="targetPoint" />
          </mxGeometry>
        </mxCell>
        <mxCell id="M4MQRnSDjoWQJ5EsZV3I-19" value="" style="endArrow=none;html=1;rounded=0;entryX=0;entryY=0.5;entryDx=0;entryDy=0;exitX=1;exitY=0.5;exitDx=0;exitDy=0;" parent="1" source="AqbFVgR0TqEET9uwso2q-13" target="M4MQRnSDjoWQJ5EsZV3I-14" edge="1">
          <mxGeometry relative="1" as="geometry">
            <mxPoint x="840" y="600" as="sourcePoint" />
            <mxPoint x="910" y="590" as="targetPoint" />
          </mxGeometry>
        </mxCell>
        <mxCell id="DvTU2ww-p_Yc2t4MfeDQ-90" value="" style="endArrow=none;html=1;rounded=0;exitX=0.935;exitY=0.247;exitDx=0;exitDy=0;exitPerimeter=0;" parent="1" source="DvTU2ww-p_Yc2t4MfeDQ-77" edge="1">
          <mxGeometry relative="1" as="geometry">
            <mxPoint x="520" y="725" as="sourcePoint" />
            <mxPoint x="630" y="565" as="targetPoint" />
          </mxGeometry>
        </mxCell>
        <mxCell id="M4MQRnSDjoWQJ5EsZV3I-20" value="" style="endArrow=none;html=1;rounded=0;exitX=1;exitY=0.5;exitDx=0;exitDy=0;entryX=0;entryY=0.5;entryDx=0;entryDy=0;" parent="1" source="AqbFVgR0TqEET9uwso2q-13" target="M4MQRnSDjoWQJ5EsZV3I-15" edge="1">
          <mxGeometry relative="1" as="geometry">
            <mxPoint x="780" y="600" as="sourcePoint" />
            <mxPoint x="910" y="590" as="targetPoint" />
          </mxGeometry>
        </mxCell>
        <mxCell id="DvTU2ww-p_Yc2t4MfeDQ-91" value="" style="endArrow=none;html=1;rounded=0;entryX=0.5;entryY=1;entryDx=0;entryDy=0;exitX=0.5;exitY=0;exitDx=0;exitDy=0;" parent="1" source="DvTU2ww-p_Yc2t4MfeDQ-78" target="AqbFVgR0TqEET9uwso2q-17" edge="1">
          <mxGeometry relative="1" as="geometry">
            <mxPoint x="490" y="585" as="sourcePoint" />
            <mxPoint x="650" y="585" as="targetPoint" />
          </mxGeometry>
        </mxCell>
        <mxCell id="M4MQRnSDjoWQJ5EsZV3I-21" value="" style="endArrow=none;html=1;rounded=0;exitX=1;exitY=0.5;exitDx=0;exitDy=0;entryX=0;entryY=0.5;entryDx=0;entryDy=0;" parent="1" source="AqbFVgR0TqEET9uwso2q-13" target="M4MQRnSDjoWQJ5EsZV3I-16" edge="1">
          <mxGeometry relative="1" as="geometry">
            <mxPoint x="780" y="600" as="sourcePoint" />
            <mxPoint x="910" y="590" as="targetPoint" />
          </mxGeometry>
        </mxCell>
        <mxCell id="DvTU2ww-p_Yc2t4MfeDQ-92" value="" style="endArrow=none;html=1;rounded=0;entryX=0.5;entryY=1;entryDx=0;entryDy=0;exitX=0.5;exitY=0;exitDx=0;exitDy=0;" parent="1" source="DvTU2ww-p_Yc2t4MfeDQ-79" target="AqbFVgR0TqEET9uwso2q-17" edge="1">
          <mxGeometry relative="1" as="geometry">
            <mxPoint x="490" y="585" as="sourcePoint" />
            <mxPoint x="650" y="585" as="targetPoint" />
          </mxGeometry>
        </mxCell>
        <mxCell id="M4MQRnSDjoWQJ5EsZV3I-12" value="&lt;span style=&quot;border-bottom: 1px dotted&quot;&gt;Id Casa Show&lt;/span&gt;" style="ellipse;whiteSpace=wrap;html=1;align=center;fillColor=#FFB366;" parent="1" vertex="1">
          <mxGeometry x="940" y="530" width="80" height="30" as="geometry" />
        </mxCell>
        <mxCell id="DvTU2ww-p_Yc2t4MfeDQ-93" value="" style="endArrow=none;html=1;rounded=0;exitX=0.5;exitY=0;exitDx=0;exitDy=0;" parent="1" source="DvTU2ww-p_Yc2t4MfeDQ-82" edge="1">
          <mxGeometry relative="1" as="geometry">
            <mxPoint x="490" y="585" as="sourcePoint" />
            <mxPoint x="630" y="565" as="targetPoint" />
          </mxGeometry>
        </mxCell>
        <mxCell id="M4MQRnSDjoWQJ5EsZV3I-14" value="&lt;span style=&quot;border-bottom: 1px dotted&quot;&gt;&lt;font style=&quot;font-size: 10px;&quot;&gt;Descrição Casa de Show&lt;/font&gt;&lt;/span&gt;" style="ellipse;whiteSpace=wrap;html=1;align=center;" parent="1" vertex="1">
          <mxGeometry x="935" y="620" width="90" height="40" as="geometry" />
        </mxCell>
        <mxCell id="M4MQRnSDjoWQJ5EsZV3I-30" value="&lt;span style=&quot;border-bottom: 1px dotted&quot;&gt;Fechada&lt;/span&gt;" style="ellipse;whiteSpace=wrap;html=1;align=center;" parent="1" vertex="1">
          <mxGeometry x="945" y="780" width="80" height="30" as="geometry" />
        </mxCell>
        <mxCell id="M4MQRnSDjoWQJ5EsZV3I-13" value="&lt;span style=&quot;border-bottom: 1px dotted&quot;&gt;Id Cidade&lt;/span&gt;" style="ellipse;whiteSpace=wrap;html=1;align=center;fillColor=#CCCCCC;" parent="1" vertex="1">
          <mxGeometry x="940" y="580" width="80" height="30" as="geometry" />
        </mxCell>
        <mxCell id="M4MQRnSDjoWQJ5EsZV3I-31" value="&lt;span style=&quot;border-bottom: 1px dotted&quot;&gt;&lt;font style=&quot;vertical-align: inherit;&quot;&gt;&lt;font style=&quot;vertical-align: inherit;&quot;&gt;Id Restaurante&lt;/font&gt;&lt;/font&gt;&lt;/span&gt;" style="ellipse;whiteSpace=wrap;html=1;align=center;fillColor=#FFB366;" parent="1" vertex="1">
          <mxGeometry x="640" y="880" width="80" height="30" as="geometry" />
        </mxCell>
        <mxCell id="M4MQRnSDjoWQJ5EsZV3I-32" value="" style="endArrow=none;html=1;rounded=0;exitX=0.5;exitY=0;exitDx=0;exitDy=0;entryX=0.5;entryY=1;entryDx=0;entryDy=0;" parent="1" source="M4MQRnSDjoWQJ5EsZV3I-31" target="M4MQRnSDjoWQJ5EsZV3I-1" edge="1">
          <mxGeometry relative="1" as="geometry">
            <mxPoint x="640" y="780" as="sourcePoint" />
            <mxPoint x="800" y="780" as="targetPoint" />
          </mxGeometry>
        </mxCell>
        <mxCell id="M4MQRnSDjoWQJ5EsZV3I-33" value="" style="endArrow=none;html=1;rounded=0;entryX=0.326;entryY=-0.012;entryDx=0;entryDy=0;exitX=0.5;exitY=1;exitDx=0;exitDy=0;entryPerimeter=0;" parent="1" source="M4MQRnSDjoWQJ5EsZV3I-1" target="M4MQRnSDjoWQJ5EsZV3I-3" edge="1">
          <mxGeometry relative="1" as="geometry">
            <mxPoint x="730" y="880" as="sourcePoint" />
            <mxPoint x="990" y="860" as="targetPoint" />
          </mxGeometry>
        </mxCell>
        <mxCell id="M4MQRnSDjoWQJ5EsZV3I-34" value="" style="endArrow=none;html=1;rounded=0;entryX=0;entryY=0.5;entryDx=0;entryDy=0;exitX=1;exitY=0.5;exitDx=0;exitDy=0;" parent="1" source="AqbFVgR0TqEET9uwso2q-13" target="M4MQRnSDjoWQJ5EsZV3I-30" edge="1">
          <mxGeometry relative="1" as="geometry">
            <mxPoint x="780" y="600" as="sourcePoint" />
            <mxPoint x="940" y="654.13" as="targetPoint" />
          </mxGeometry>
        </mxCell>
        <mxCell id="XmGc_cwcnCQfVOQd5VUs-3" value="Contém" style="shape=rhombus;perimeter=rhombusPerimeter;whiteSpace=wrap;html=1;align=center;" parent="1" vertex="1">
          <mxGeometry x="580" y="195" width="100" height="50" as="geometry" />
        </mxCell>
        <mxCell id="XmGc_cwcnCQfVOQd5VUs-4" value="" style="endArrow=none;html=1;rounded=0;exitX=0.5;exitY=-0.02;exitDx=0;exitDy=0;exitPerimeter=0;" parent="1" source="unv03cRe8iEazVeVK6jo-6" edge="1">
          <mxGeometry relative="1" as="geometry">
            <mxPoint x="540" y="225" as="sourcePoint" />
            <mxPoint x="630" y="110" as="targetPoint" />
          </mxGeometry>
        </mxCell>
        <mxCell id="XmGc_cwcnCQfVOQd5VUs-5" value="" style="endArrow=none;html=1;rounded=0;entryX=0.5;entryY=1;entryDx=0;entryDy=0;exitX=0.5;exitY=0;exitDx=0;exitDy=0;" parent="1" source="unv03cRe8iEazVeVK6jo-9" target="XmGc_cwcnCQfVOQd5VUs-3" edge="1">
          <mxGeometry relative="1" as="geometry">
            <mxPoint x="640" y="205" as="sourcePoint" />
            <mxPoint x="640" y="120" as="targetPoint" />
          </mxGeometry>
        </mxCell>
        <mxCell id="XmGc_cwcnCQfVOQd5VUs-6" value="Contém" style="shape=rhombus;perimeter=rhombusPerimeter;whiteSpace=wrap;html=1;align=center;" parent="1" vertex="1">
          <mxGeometry x="720" y="195" width="100" height="50" as="geometry" />
        </mxCell>
        <mxCell id="XmGc_cwcnCQfVOQd5VUs-8" style="edgeStyle=orthogonalEdgeStyle;rounded=0;orthogonalLoop=1;jettySize=auto;html=1;exitX=0.5;exitY=1;exitDx=0;exitDy=0;" parent="1" source="M4MQRnSDjoWQJ5EsZV3I-30" target="M4MQRnSDjoWQJ5EsZV3I-30" edge="1">
          <mxGeometry relative="1" as="geometry" />
        </mxCell>
        <mxCell id="XmGc_cwcnCQfVOQd5VUs-10" value="" style="endArrow=none;html=1;rounded=0;entryX=0.5;entryY=1;entryDx=0;entryDy=0;exitX=0.5;exitY=0;exitDx=0;exitDy=0;" parent="1" source="unv03cRe8iEazVeVK6jo-10" target="XmGc_cwcnCQfVOQd5VUs-6" edge="1">
          <mxGeometry relative="1" as="geometry">
            <mxPoint x="749.41" y="315" as="sourcePoint" />
            <mxPoint x="749.41" y="250" as="targetPoint" />
          </mxGeometry>
        </mxCell>
        <mxCell id="unv03cRe8iEazVeVK6jo-15" value="" style="endArrow=none;html=1;rounded=0;entryX=0.5;entryY=1;entryDx=0;entryDy=0;exitX=0.5;exitY=0;exitDx=0;exitDy=0;" parent="1" source="AqbFVgR0TqEET9uwso2q-18" target="unv03cRe8iEazVeVK6jo-4" edge="1">
          <mxGeometry relative="1" as="geometry">
            <mxPoint x="630" y="-30" as="sourcePoint" />
            <mxPoint x="630" y="-120" as="targetPoint" />
          </mxGeometry>
        </mxCell>
        <mxCell id="unv03cRe8iEazVeVK6jo-4" value="(1,1)" style="text;strokeColor=none;fillColor=none;spacingLeft=4;spacingRight=4;overflow=hidden;rotatable=0;points=[[0,0.5],[1,0.5]];portConstraint=eastwest;fontSize=12;whiteSpace=wrap;html=1;" parent="1" vertex="1">
          <mxGeometry x="610" y="-105" width="40" height="30" as="geometry" />
        </mxCell>
        <mxCell id="unv03cRe8iEazVeVK6jo-16" value="" style="endArrow=none;html=1;rounded=0;exitX=0.5;exitY=1;exitDx=0;exitDy=0;entryX=0.5;entryY=0;entryDx=0;entryDy=0;" parent="1" source="AqbFVgR0TqEET9uwso2q-18" target="unv03cRe8iEazVeVK6jo-5" edge="1">
          <mxGeometry relative="1" as="geometry">
            <mxPoint x="630" y="30" as="sourcePoint" />
            <mxPoint x="630" y="70" as="targetPoint" />
          </mxGeometry>
        </mxCell>
        <mxCell id="unv03cRe8iEazVeVK6jo-5" value="(1,n)" style="text;strokeColor=none;fillColor=none;spacingLeft=4;spacingRight=4;overflow=hidden;rotatable=0;points=[[0,0.5],[1,0.5]];portConstraint=eastwest;fontSize=12;whiteSpace=wrap;html=1;" parent="1" vertex="1">
          <mxGeometry x="610" y="35" width="40" height="30" as="geometry" />
        </mxCell>
        <mxCell id="unv03cRe8iEazVeVK6jo-17" value="" style="endArrow=none;html=1;rounded=0;entryX=1;entryY=0.5;entryDx=0;entryDy=0;exitX=0;exitY=0.5;exitDx=0;exitDy=0;" parent="1" source="AqbFVgR0TqEET9uwso2q-27" target="unv03cRe8iEazVeVK6jo-12" edge="1">
          <mxGeometry relative="1" as="geometry">
            <mxPoint x="730" y="90" as="sourcePoint" />
            <mxPoint x="680" y="90" as="targetPoint" />
          </mxGeometry>
        </mxCell>
        <mxCell id="unv03cRe8iEazVeVK6jo-12" value="(1,1)" style="text;strokeColor=none;fillColor=none;spacingLeft=4;spacingRight=4;overflow=hidden;rotatable=0;points=[[0,0.5],[1,0.5]];portConstraint=eastwest;fontSize=12;whiteSpace=wrap;html=1;" parent="1" vertex="1">
          <mxGeometry x="690" y="75" width="40" height="30" as="geometry" />
        </mxCell>
        <mxCell id="unv03cRe8iEazVeVK6jo-18" value="" style="endArrow=none;html=1;rounded=0;exitX=1;exitY=0.5;exitDx=0;exitDy=0;entryX=0;entryY=0.5;entryDx=0;entryDy=0;" parent="1" source="AqbFVgR0TqEET9uwso2q-27" target="unv03cRe8iEazVeVK6jo-11" edge="1">
          <mxGeometry relative="1" as="geometry">
            <mxPoint x="890" y="95" as="sourcePoint" />
            <mxPoint x="930" y="95" as="targetPoint" />
          </mxGeometry>
        </mxCell>
        <mxCell id="unv03cRe8iEazVeVK6jo-11" value="(1,n)" style="text;strokeColor=none;fillColor=none;spacingLeft=4;spacingRight=4;overflow=hidden;rotatable=0;points=[[0,0.5],[1,0.5]];portConstraint=eastwest;fontSize=12;whiteSpace=wrap;html=1;" parent="1" vertex="1">
          <mxGeometry x="880" y="75" width="40" height="30" as="geometry" />
        </mxCell>
        <mxCell id="2UnwyBO6S4fNmjlJD-Vc-2" value="" style="endArrow=none;html=1;rounded=0;exitX=0.5;exitY=1;exitDx=0;exitDy=0;entryX=0.5;entryY=0;entryDx=0;entryDy=0;" parent="1" source="DvTU2ww-p_Yc2t4MfeDQ-41" target="qm8pAxsmq1ro5lEaJwzE-4" edge="1">
          <mxGeometry relative="1" as="geometry">
            <mxPoint x="770" y="750" as="sourcePoint" />
            <mxPoint x="770" y="830" as="targetPoint" />
          </mxGeometry>
        </mxCell>
        <mxCell id="qm8pAxsmq1ro5lEaJwzE-6" value="(1,n)" style="text;strokeColor=none;fillColor=none;spacingLeft=4;spacingRight=4;overflow=hidden;rotatable=0;points=[[0,0.5],[1,0.5]];portConstraint=eastwest;fontSize=12;whiteSpace=wrap;html=1;" parent="1" vertex="1">
          <mxGeometry x="610" y="475" width="40" height="30" as="geometry" />
        </mxCell>
        <mxCell id="2UnwyBO6S4fNmjlJD-Vc-5" value="" style="endArrow=none;html=1;rounded=0;exitX=0.5;exitY=1;exitDx=0;exitDy=0;entryX=0.5;entryY=0;entryDx=0;entryDy=0;" parent="1" source="AqbFVgR0TqEET9uwso2q-12" target="qm8pAxsmq1ro5lEaJwzE-5" edge="1">
          <mxGeometry relative="1" as="geometry">
            <mxPoint x="630" y="340" as="sourcePoint" />
            <mxPoint x="630" y="405" as="targetPoint" />
          </mxGeometry>
        </mxCell>
        <mxCell id="qm8pAxsmq1ro5lEaJwzE-5" value="(1,n)" style="text;strokeColor=none;fillColor=none;spacingLeft=4;spacingRight=4;overflow=hidden;rotatable=0;points=[[0,0.5],[1,0.5]];portConstraint=eastwest;fontSize=12;whiteSpace=wrap;html=1;" parent="1" vertex="1">
          <mxGeometry x="610" y="360" width="40" height="30" as="geometry" />
        </mxCell>
        <mxCell id="2UnwyBO6S4fNmjlJD-Vc-3" value="" style="endArrow=none;html=1;rounded=0;exitX=0.5;exitY=0;exitDx=0;exitDy=0;entryX=0.5;entryY=1;entryDx=0;entryDy=0;" parent="1" source="AqbFVgR0TqEET9uwso2q-17" target="qm8pAxsmq1ro5lEaJwzE-6" edge="1">
          <mxGeometry relative="1" as="geometry">
            <mxPoint x="630" y="525" as="sourcePoint" />
            <mxPoint x="630" y="465" as="targetPoint" />
          </mxGeometry>
        </mxCell>
        <mxCell id="qm8pAxsmq1ro5lEaJwzE-4" value="(1,1)" style="text;strokeColor=none;fillColor=none;spacingLeft=4;spacingRight=4;overflow=hidden;rotatable=0;points=[[0,0.5],[1,0.5]];portConstraint=eastwest;fontSize=12;whiteSpace=wrap;html=1;" parent="1" vertex="1">
          <mxGeometry x="750" y="770" width="40" height="30" as="geometry" />
        </mxCell>
        <mxCell id="2UnwyBO6S4fNmjlJD-Vc-6" value="" style="endArrow=none;html=1;rounded=0;entryX=0.5;entryY=1;entryDx=0;entryDy=0;exitX=0.5;exitY=0;exitDx=0;exitDy=0;" parent="1" source="AqbFVgR0TqEET9uwso2q-12" target="unv03cRe8iEazVeVK6jo-9" edge="1">
          <mxGeometry relative="1" as="geometry">
            <mxPoint x="630" y="300" as="sourcePoint" />
            <mxPoint x="630" y="245" as="targetPoint" />
          </mxGeometry>
        </mxCell>
        <mxCell id="unv03cRe8iEazVeVK6jo-9" value="(1,n)" style="text;strokeColor=none;fillColor=none;spacingLeft=4;spacingRight=4;overflow=hidden;rotatable=0;points=[[0,0.5],[1,0.5]];portConstraint=eastwest;fontSize=12;whiteSpace=wrap;html=1;" parent="1" vertex="1">
          <mxGeometry x="610" y="250" width="40" height="30" as="geometry" />
        </mxCell>
        <mxCell id="qm8pAxsmq1ro5lEaJwzE-12" value="(1,1)" style="text;strokeColor=none;fillColor=none;spacingLeft=4;spacingRight=4;overflow=hidden;rotatable=0;points=[[0,0.5],[1,0.5]];portConstraint=eastwest;fontSize=12;whiteSpace=wrap;html=1;" parent="1" vertex="1">
          <mxGeometry x="1060" y="-275" width="40" height="30" as="geometry" />
        </mxCell>
        <mxCell id="2UnwyBO6S4fNmjlJD-Vc-8" value="" style="endArrow=none;html=1;rounded=0;exitX=0.5;exitY=0;exitDx=0;exitDy=0;" parent="1" source="AqbFVgR0TqEET9uwso2q-21" edge="1">
          <mxGeometry relative="1" as="geometry">
            <mxPoint x="530" y="215" as="sourcePoint" />
            <mxPoint x="630" y="150" as="targetPoint" />
          </mxGeometry>
        </mxCell>
        <mxCell id="unv03cRe8iEazVeVK6jo-7" value="(1,n)" style="text;strokeColor=none;fillColor=none;spacingLeft=4;spacingRight=4;overflow=hidden;rotatable=0;points=[[0,0.5],[1,0.5]];portConstraint=eastwest;fontSize=12;whiteSpace=wrap;html=1;" parent="1" vertex="1">
          <mxGeometry x="360" y="200" width="40" height="30" as="geometry" />
        </mxCell>
        <mxCell id="qm8pAxsmq1ro5lEaJwzE-10" value="(1,n)" style="text;strokeColor=none;fillColor=none;spacingLeft=4;spacingRight=4;overflow=hidden;rotatable=0;points=[[0,0.5],[1,0.5]];portConstraint=eastwest;fontSize=12;whiteSpace=wrap;html=1;" parent="1" vertex="1">
          <mxGeometry x="940" y="-500" width="40" height="30" as="geometry" />
        </mxCell>
        <mxCell id="2UnwyBO6S4fNmjlJD-Vc-7" value="" style="endArrow=none;html=1;rounded=0;exitX=1;exitY=0.5;exitDx=0;exitDy=0;entryX=0;entryY=0.5;entryDx=0;entryDy=0;" parent="1" source="AqbFVgR0TqEET9uwso2q-14" target="unv03cRe8iEazVeVK6jo-7" edge="1">
          <mxGeometry relative="1" as="geometry">
            <mxPoint x="320" y="215" as="sourcePoint" />
            <mxPoint x="430" y="215" as="targetPoint" />
            <Array as="points" />
          </mxGeometry>
        </mxCell>
        <mxCell id="qm8pAxsmq1ro5lEaJwzE-14" value="" style="endArrow=none;html=1;rounded=0;entryX=0.5;entryY=0;entryDx=0;entryDy=0;" parent="1" source="unv03cRe8iEazVeVK6jo-6" target="XmGc_cwcnCQfVOQd5VUs-3" edge="1">
          <mxGeometry relative="1" as="geometry">
            <mxPoint x="420" y="260" as="sourcePoint" />
            <mxPoint x="580" y="250" as="targetPoint" />
            <Array as="points">
              <mxPoint x="630" y="160" />
            </Array>
          </mxGeometry>
        </mxCell>
        <mxCell id="qm8pAxsmq1ro5lEaJwzE-16" value="" style="endArrow=none;html=1;rounded=0;entryX=0.5;entryY=0;entryDx=0;entryDy=0;" parent="1" target="XmGc_cwcnCQfVOQd5VUs-6" edge="1">
          <mxGeometry relative="1" as="geometry">
            <mxPoint x="630" y="150" as="sourcePoint" />
            <mxPoint x="580" y="260" as="targetPoint" />
          </mxGeometry>
        </mxCell>
        <mxCell id="2UnwyBO6S4fNmjlJD-Vc-10" value="" style="endArrow=none;html=1;rounded=0;exitX=0.5;exitY=1;exitDx=0;exitDy=0;entryX=0.5;entryY=0;entryDx=0;entryDy=0;" parent="1" source="m7RQZ_AODKtlvPJroXdu-17" target="qm8pAxsmq1ro5lEaJwzE-9" edge="1">
          <mxGeometry relative="1" as="geometry">
            <mxPoint x="950" y="-150" as="sourcePoint" />
            <mxPoint x="950" y="70" as="targetPoint" />
          </mxGeometry>
        </mxCell>
        <mxCell id="qm8pAxsmq1ro5lEaJwzE-9" value="(1,1)" style="text;strokeColor=none;fillColor=none;spacingLeft=4;spacingRight=4;overflow=hidden;rotatable=0;points=[[0,0.5],[1,0.5]];portConstraint=eastwest;fontSize=12;whiteSpace=wrap;html=1;" parent="1" vertex="1">
          <mxGeometry x="960" y="-45" width="40" height="30" as="geometry" />
        </mxCell>
        <mxCell id="2UnwyBO6S4fNmjlJD-Vc-11" value="" style="endArrow=none;html=1;rounded=0;exitX=0.5;exitY=1;exitDx=0;exitDy=0;entryX=0.5;entryY=0;entryDx=0;entryDy=0;" parent="1" source="m7RQZ_AODKtlvPJroXdu-7" target="qm8pAxsmq1ro5lEaJwzE-8" edge="1">
          <mxGeometry relative="1" as="geometry">
            <mxPoint x="980" y="-240" as="sourcePoint" />
            <mxPoint x="980" y="-120" as="targetPoint" />
          </mxGeometry>
        </mxCell>
        <mxCell id="qm8pAxsmq1ro5lEaJwzE-8" value="(1,n)" style="text;strokeColor=none;fillColor=none;spacingLeft=4;spacingRight=4;overflow=hidden;rotatable=0;points=[[0,0.5],[1,0.5]];portConstraint=eastwest;fontSize=12;whiteSpace=wrap;html=1;" parent="1" vertex="1">
          <mxGeometry x="960" y="-190" width="40" height="30" as="geometry" />
        </mxCell>
        <mxCell id="2UnwyBO6S4fNmjlJD-Vc-12" value="" style="endArrow=none;html=1;rounded=0;exitX=0.5;exitY=1;exitDx=0;exitDy=0;entryX=0.5;entryY=0;entryDx=0;entryDy=0;" parent="1" source="m7RQZ_AODKtlvPJroXdu-32" target="qm8pAxsmq1ro5lEaJwzE-11" edge="1">
          <mxGeometry relative="1" as="geometry">
            <mxPoint x="980" y="-390" as="sourcePoint" />
            <mxPoint x="980" y="-280" as="targetPoint" />
          </mxGeometry>
        </mxCell>
        <mxCell id="qm8pAxsmq1ro5lEaJwzE-11" value="(1,1)" style="text;strokeColor=none;fillColor=none;spacingLeft=4;spacingRight=4;overflow=hidden;rotatable=0;points=[[0,0.5],[1,0.5]];portConstraint=eastwest;fontSize=12;whiteSpace=wrap;html=1;" parent="1" vertex="1">
          <mxGeometry x="960" y="-350" width="40" height="30" as="geometry" />
        </mxCell>
        <mxCell id="2UnwyBO6S4fNmjlJD-Vc-13" value="" style="endArrow=none;html=1;rounded=0;exitX=1;exitY=0.5;exitDx=0;exitDy=0;entryX=0;entryY=0.5;entryDx=0;entryDy=0;" parent="1" source="m7RQZ_AODKtlvPJroXdu-7" target="qm8pAxsmq1ro5lEaJwzE-12" edge="1">
          <mxGeometry relative="1" as="geometry">
            <mxPoint x="1030" y="-260" as="sourcePoint" />
            <mxPoint x="1130" y="-260" as="targetPoint" />
          </mxGeometry>
        </mxCell>
        <mxCell id="unv03cRe8iEazVeVK6jo-6" value="(1,1)" style="text;strokeColor=none;fillColor=none;spacingLeft=4;spacingRight=4;overflow=hidden;rotatable=0;points=[[0,0.5],[1,0.5]];portConstraint=eastwest;fontSize=12;whiteSpace=wrap;html=1;" parent="1" vertex="1">
          <mxGeometry x="610" y="120" width="40" height="30" as="geometry" />
        </mxCell>
        <mxCell id="2UnwyBO6S4fNmjlJD-Vc-16" value="" style="endArrow=none;html=1;rounded=0;entryX=0.5;entryY=1;entryDx=0;entryDy=0;exitX=0.5;exitY=0;exitDx=0;exitDy=0;" parent="1" source="AqbFVgR0TqEET9uwso2q-13" target="unv03cRe8iEazVeVK6jo-10" edge="1">
          <mxGeometry relative="1" as="geometry">
            <mxPoint x="770" y="560" as="sourcePoint" />
            <mxPoint x="770" y="245" as="targetPoint" />
          </mxGeometry>
        </mxCell>
        <mxCell id="unv03cRe8iEazVeVK6jo-10" value="(1,n)" style="text;strokeColor=none;fillColor=none;spacingLeft=4;spacingRight=4;overflow=hidden;rotatable=0;points=[[0,0.5],[1,0.5]];portConstraint=eastwest;fontSize=12;whiteSpace=wrap;html=1;" parent="1" vertex="1">
          <mxGeometry x="750" y="390" width="40" height="30" as="geometry" />
        </mxCell>
        <mxCell id="2UnwyBO6S4fNmjlJD-Vc-17" value="" style="endArrow=none;html=1;rounded=0;exitX=0.5;exitY=1;exitDx=0;exitDy=0;" parent="1" source="ZwnwwaySeWqg503XAMPT-15" edge="1">
          <mxGeometry relative="1" as="geometry">
            <mxPoint x="1520" y="-70" as="sourcePoint" />
            <mxPoint x="1360" y="90" as="targetPoint" />
            <Array as="points">
              <mxPoint x="1520" y="90" />
            </Array>
          </mxGeometry>
        </mxCell>
        <mxCell id="2UnwyBO6S4fNmjlJD-Vc-20" value="" style="endArrow=none;html=1;rounded=0;exitX=1;exitY=0.5;exitDx=0;exitDy=0;entryX=0;entryY=0.5;entryDx=0;entryDy=0;" parent="1" source="m7RQZ_AODKtlvPJroXdu-39" target="qm8pAxsmq1ro5lEaJwzE-13" edge="1">
          <mxGeometry relative="1" as="geometry">
            <mxPoint x="1380" y="60" as="sourcePoint" />
            <mxPoint x="1470" y="60" as="targetPoint" />
            <Array as="points">
              <mxPoint x="1250" y="-90" />
            </Array>
          </mxGeometry>
        </mxCell>
        <mxCell id="qm8pAxsmq1ro5lEaJwzE-13" value="(1,1)" style="text;strokeColor=none;fillColor=none;spacingLeft=4;spacingRight=4;overflow=hidden;rotatable=0;points=[[0,0.5],[1,0.5]];portConstraint=eastwest;fontSize=12;whiteSpace=wrap;html=1;" parent="1" vertex="1">
          <mxGeometry x="1380" y="-105" width="40" height="30" as="geometry" />
        </mxCell>
        <mxCell id="2UnwyBO6S4fNmjlJD-Vc-21" value="" style="endArrow=none;html=1;rounded=0;exitX=0;exitY=0.5;exitDx=0;exitDy=0;entryX=1;entryY=0.5;entryDx=0;entryDy=0;" parent="1" source="m7RQZ_AODKtlvPJroXdu-79" target="qm8pAxsmq1ro5lEaJwzE-20" edge="1">
          <mxGeometry width="50" height="50" relative="1" as="geometry">
            <mxPoint x="1800" y="335" as="sourcePoint" />
            <mxPoint x="1760" y="285" as="targetPoint" />
            <Array as="points" />
          </mxGeometry>
        </mxCell>
        <mxCell id="qm8pAxsmq1ro5lEaJwzE-20" value="(1,1)" style="text;strokeColor=none;fillColor=none;spacingLeft=4;spacingRight=4;overflow=hidden;rotatable=0;points=[[0,0.5],[1,0.5]];portConstraint=eastwest;fontSize=12;whiteSpace=wrap;html=1;" parent="1" vertex="1">
          <mxGeometry x="1660" y="320" width="40" height="30" as="geometry" />
        </mxCell>
        <mxCell id="2UnwyBO6S4fNmjlJD-Vc-22" value="" style="endArrow=none;html=1;rounded=0;exitX=0.52;exitY=-0.06;exitDx=0;exitDy=0;entryX=0.5;entryY=1.145;entryDx=0;entryDy=0;entryPerimeter=0;exitPerimeter=0;" parent="1" source="qm8pAxsmq1ro5lEaJwzE-20" target="m7RQZ_AODKtlvPJroXdu-2" edge="1">
          <mxGeometry width="50" height="50" relative="1" as="geometry">
            <mxPoint x="1480" y="525" as="sourcePoint" />
            <mxPoint x="1440" y="475" as="targetPoint" />
            <Array as="points" />
          </mxGeometry>
        </mxCell>
        <mxCell id="2UnwyBO6S4fNmjlJD-Vc-23" value="" style="endArrow=none;html=1;rounded=0;exitX=1;exitY=0.5;exitDx=0;exitDy=0;entryX=0;entryY=0.5;entryDx=0;entryDy=0;" parent="1" source="m7RQZ_AODKtlvPJroXdu-79" target="qm8pAxsmq1ro5lEaJwzE-21" edge="1">
          <mxGeometry relative="1" as="geometry">
            <mxPoint x="1920" y="335" as="sourcePoint" />
            <mxPoint x="1980" y="335" as="targetPoint" />
          </mxGeometry>
        </mxCell>
        <mxCell id="qm8pAxsmq1ro5lEaJwzE-21" value="(1,1)" style="text;strokeColor=none;fillColor=none;spacingLeft=4;spacingRight=4;overflow=hidden;rotatable=0;points=[[0,0.5],[1,0.5]];portConstraint=eastwest;fontSize=12;whiteSpace=wrap;html=1;" parent="1" vertex="1">
          <mxGeometry x="1940" y="320" width="40" height="30" as="geometry" />
        </mxCell>
        <mxCell id="2UnwyBO6S4fNmjlJD-Vc-25" value="" style="endArrow=none;html=1;rounded=0;exitX=0.5;exitY=1;exitDx=0;exitDy=0;entryX=0.5;entryY=0;entryDx=0;entryDy=0;" parent="1" source="AqbFVgR0TqEET9uwso2q-30" target="unv03cRe8iEazVeVK6jo-13" edge="1">
          <mxGeometry relative="1" as="geometry">
            <mxPoint x="980" y="245" as="sourcePoint" />
            <mxPoint x="980" y="345" as="targetPoint" />
            <Array as="points" />
          </mxGeometry>
        </mxCell>
        <mxCell id="unv03cRe8iEazVeVK6jo-13" value="(1,1)" style="text;strokeColor=none;fillColor=none;spacingLeft=4;spacingRight=4;overflow=hidden;rotatable=0;points=[[0,0.5],[1,0.5]];portConstraint=eastwest;fontSize=12;whiteSpace=wrap;html=1;" parent="1" vertex="1">
          <mxGeometry x="960" y="270" width="40" height="30" as="geometry" />
        </mxCell>
        <mxCell id="2UnwyBO6S4fNmjlJD-Vc-26" value="" style="endArrow=none;html=1;rounded=0;exitX=0.5;exitY=1;exitDx=0;exitDy=0;entryX=0.5;entryY=0;entryDx=0;entryDy=0;" parent="1" source="AqbFVgR0TqEET9uwso2q-3" target="unv03cRe8iEazVeVK6jo-14" edge="1">
          <mxGeometry relative="1" as="geometry">
            <mxPoint x="980" y="110" as="sourcePoint" />
            <mxPoint x="980" y="185" as="targetPoint" />
            <Array as="points" />
          </mxGeometry>
        </mxCell>
        <mxCell id="unv03cRe8iEazVeVK6jo-14" value="(1,1)" style="text;strokeColor=none;fillColor=none;spacingLeft=4;spacingRight=4;overflow=hidden;rotatable=0;points=[[0,0.5],[1,0.5]];portConstraint=eastwest;fontSize=12;whiteSpace=wrap;html=1;" parent="1" vertex="1">
          <mxGeometry x="960" y="135" width="40" height="30" as="geometry" />
        </mxCell>
        <mxCell id="2UnwyBO6S4fNmjlJD-Vc-27" value="" style="endArrow=none;html=1;rounded=0;exitX=0.5;exitY=1;exitDx=0;exitDy=0;entryX=0.5;entryY=0;entryDx=0;entryDy=0;" parent="1" source="AqbFVgR0TqEET9uwso2q-13" target="qm8pAxsmq1ro5lEaJwzE-1" edge="1">
          <mxGeometry relative="1" as="geometry">
            <mxPoint x="770" y="600" as="sourcePoint" />
            <mxPoint x="770" y="690" as="targetPoint" />
          </mxGeometry>
        </mxCell>
        <mxCell id="qm8pAxsmq1ro5lEaJwzE-1" value="(1,1)" style="text;strokeColor=none;fillColor=none;spacingLeft=4;spacingRight=4;overflow=hidden;rotatable=0;points=[[0,0.5],[1,0.5]];portConstraint=eastwest;fontSize=12;whiteSpace=wrap;html=1;" parent="1" vertex="1">
          <mxGeometry x="750" y="630" width="40" height="30" as="geometry" />
        </mxCell>
        <mxCell id="ZwnwwaySeWqg503XAMPT-1" value="" style="endArrow=none;html=1;rounded=0;exitX=0.5;exitY=1;exitDx=0;exitDy=0;entryX=0.5;entryY=0;entryDx=0;entryDy=0;" parent="1" edge="1">
          <mxGeometry relative="1" as="geometry">
            <mxPoint x="979.7" y="-490" as="sourcePoint" />
            <mxPoint x="979.7" y="-450" as="targetPoint" />
          </mxGeometry>
        </mxCell>
        <mxCell id="ZwnwwaySeWqg503XAMPT-3" value="" style="endArrow=none;html=1;rounded=0;exitX=1;exitY=0.5;exitDx=0;exitDy=0;" parent="1" source="ZwnwwaySeWqg503XAMPT-20" edge="1">
          <mxGeometry relative="1" as="geometry">
            <mxPoint x="1050" y="80" as="sourcePoint" />
            <mxPoint x="1290" y="90" as="targetPoint" />
          </mxGeometry>
        </mxCell>
        <mxCell id="ZwnwwaySeWqg503XAMPT-4" value="Disponibilidade &lt;br&gt;Categoria" style="shape=associativeEntity;whiteSpace=wrap;html=1;align=center;" parent="1" vertex="1">
          <mxGeometry x="1240" y="60" width="140" height="60" as="geometry" />
        </mxCell>
        <mxCell id="ZwnwwaySeWqg503XAMPT-6" value="" style="endArrow=none;html=1;rounded=0;exitX=1;exitY=0.5;exitDx=0;exitDy=0;entryX=0;entryY=0.5;entryDx=0;entryDy=0;" parent="1" source="ZwnwwaySeWqg503XAMPT-22" target="m7RQZ_AODKtlvPJroXdu-2" edge="1">
          <mxGeometry relative="1" as="geometry">
            <mxPoint x="1380" y="200.38" as="sourcePoint" />
            <mxPoint x="1710" y="180" as="targetPoint" />
          </mxGeometry>
        </mxCell>
        <mxCell id="ZwnwwaySeWqg503XAMPT-8" value="" style="endArrow=none;html=1;rounded=0;entryX=0;entryY=0.5;entryDx=0;entryDy=0;exitX=1.057;exitY=0.894;exitDx=0;exitDy=0;exitPerimeter=0;" parent="1" source="ZwnwwaySeWqg503XAMPT-24" target="ZwnwwaySeWqg503XAMPT-26" edge="1">
          <mxGeometry relative="1" as="geometry">
            <mxPoint x="1200" y="150" as="sourcePoint" />
            <mxPoint x="1240" y="164.99999999999977" as="targetPoint" />
            <Array as="points" />
          </mxGeometry>
        </mxCell>
        <mxCell id="m7RQZ_AODKtlvPJroXdu-2" value="Categoria Quarto" style="shape=ext;margin=3;double=1;whiteSpace=wrap;html=1;align=center;" parent="1" vertex="1">
          <mxGeometry x="1630" y="160" width="100" height="40" as="geometry" />
        </mxCell>
        <mxCell id="ZwnwwaySeWqg503XAMPT-15" value="(1,n)" style="text;strokeColor=none;fillColor=none;spacingLeft=4;spacingRight=4;overflow=hidden;rotatable=0;points=[[0,0.5],[1,0.5]];portConstraint=eastwest;fontSize=12;whiteSpace=wrap;html=1;" parent="1" vertex="1">
          <mxGeometry x="1500" y="-20" width="40" height="30" as="geometry" />
        </mxCell>
        <mxCell id="ZwnwwaySeWqg503XAMPT-19" value="" style="endArrow=none;html=1;rounded=0;exitX=0.468;exitY=-0.017;exitDx=0;exitDy=0;entryX=0.5;entryY=1;entryDx=0;entryDy=0;exitPerimeter=0;" parent="1" source="ZwnwwaySeWqg503XAMPT-15" target="m7RQZ_AODKtlvPJroXdu-5" edge="1">
          <mxGeometry relative="1" as="geometry">
            <mxPoint x="1430" y="-80" as="sourcePoint" />
            <mxPoint x="1480" y="-80" as="targetPoint" />
          </mxGeometry>
        </mxCell>
        <mxCell id="ZwnwwaySeWqg503XAMPT-21" value="" style="endArrow=none;html=1;rounded=0;exitX=1;exitY=0.5;exitDx=0;exitDy=0;" parent="1" source="AqbFVgR0TqEET9uwso2q-3" target="ZwnwwaySeWqg503XAMPT-20" edge="1">
          <mxGeometry relative="1" as="geometry">
            <mxPoint x="1030" y="90" as="sourcePoint" />
            <mxPoint x="1290" y="90" as="targetPoint" />
          </mxGeometry>
        </mxCell>
        <mxCell id="ZwnwwaySeWqg503XAMPT-20" value="(1,1)" style="text;strokeColor=none;fillColor=none;spacingLeft=4;spacingRight=4;overflow=hidden;rotatable=0;points=[[0,0.5],[1,0.5]];portConstraint=eastwest;fontSize=12;whiteSpace=wrap;html=1;" parent="1" vertex="1">
          <mxGeometry x="1150" y="75" width="40" height="30" as="geometry" />
        </mxCell>
        <mxCell id="ZwnwwaySeWqg503XAMPT-23" value="" style="endArrow=none;html=1;rounded=0;exitX=1;exitY=0.5;exitDx=0;exitDy=0;entryX=0;entryY=0.5;entryDx=0;entryDy=0;" parent="1" source="ZwnwwaySeWqg503XAMPT-26" target="ZwnwwaySeWqg503XAMPT-22" edge="1">
          <mxGeometry relative="1" as="geometry">
            <mxPoint x="1380" y="179.99999999999977" as="sourcePoint" />
            <mxPoint x="1630" y="180" as="targetPoint" />
          </mxGeometry>
        </mxCell>
        <mxCell id="ZwnwwaySeWqg503XAMPT-22" value="(1,n)" style="text;strokeColor=none;fillColor=none;spacingLeft=4;spacingRight=4;overflow=hidden;rotatable=0;points=[[0,0.5],[1,0.5]];portConstraint=eastwest;fontSize=12;whiteSpace=wrap;html=1;" parent="1" vertex="1">
          <mxGeometry x="1490" y="165" width="40" height="30" as="geometry" />
        </mxCell>
        <mxCell id="ZwnwwaySeWqg503XAMPT-25" value="" style="endArrow=none;html=1;rounded=0;exitX=1;exitY=0.5;exitDx=0;exitDy=0;entryX=0;entryY=0.25;entryDx=0;entryDy=0;" parent="1" source="AqbFVgR0TqEET9uwso2q-3" target="ZwnwwaySeWqg503XAMPT-24" edge="1">
          <mxGeometry relative="1" as="geometry">
            <mxPoint x="1030" y="90" as="sourcePoint" />
            <mxPoint x="1240" y="165" as="targetPoint" />
            <Array as="points" />
          </mxGeometry>
        </mxCell>
        <mxCell id="ZwnwwaySeWqg503XAMPT-24" value="(1,n)" style="text;strokeColor=none;fillColor=none;spacingLeft=4;spacingRight=4;overflow=hidden;rotatable=0;points=[[0,0.5],[1,0.5]];portConstraint=eastwest;fontSize=12;whiteSpace=wrap;html=1;" parent="1" vertex="1">
          <mxGeometry x="1110" y="122.5" width="40" height="30" as="geometry" />
        </mxCell>
        <mxCell id="ZwnwwaySeWqg503XAMPT-26" value="Possui" style="shape=rhombus;perimeter=rhombusPerimeter;whiteSpace=wrap;html=1;align=center;" parent="1" vertex="1">
          <mxGeometry x="1250" y="152.5" width="120" height="55" as="geometry" />
        </mxCell>
        <mxCell id="vxrTX5jhvUEjVtBuJPQT-1" value="&lt;span style=&quot;border-bottom: 1px dotted&quot;&gt;Id Hotel&lt;/span&gt;" style="ellipse;whiteSpace=wrap;html=1;align=center;fillColor=#CCCCCC;" vertex="1" parent="1">
          <mxGeometry x="800" y="-320" width="80" height="30" as="geometry" />
        </mxCell>
        <mxCell id="vxrTX5jhvUEjVtBuJPQT-3" value="" style="endArrow=none;html=1;rounded=0;exitX=1;exitY=0.5;exitDx=0;exitDy=0;" edge="1" parent="1" source="vxrTX5jhvUEjVtBuJPQT-1">
          <mxGeometry relative="1" as="geometry">
            <mxPoint x="890" y="-345" as="sourcePoint" />
            <mxPoint x="930" y="-260" as="targetPoint" />
          </mxGeometry>
        </mxCell>
        <mxCell id="vxrTX5jhvUEjVtBuJPQT-4" style="edgeStyle=orthogonalEdgeStyle;rounded=0;orthogonalLoop=1;jettySize=auto;html=1;exitX=0.5;exitY=1;exitDx=0;exitDy=0;" edge="1" parent="1" source="m7RQZ_AODKtlvPJroXdu-23" target="m7RQZ_AODKtlvPJroXdu-23">
          <mxGeometry relative="1" as="geometry" />
        </mxCell>
        <mxCell id="vxrTX5jhvUEjVtBuJPQT-5" value="&lt;span style=&quot;border-bottom: 1px dotted&quot;&gt;Id Hotel&lt;/span&gt;" style="ellipse;whiteSpace=wrap;html=1;align=center;fillColor=#CCCCCC;" vertex="1" parent="1">
          <mxGeometry x="1380" y="-210" width="80" height="30" as="geometry" />
        </mxCell>
        <mxCell id="vxrTX5jhvUEjVtBuJPQT-6" value="" style="endArrow=none;html=1;rounded=0;exitX=0.5;exitY=1;exitDx=0;exitDy=0;" edge="1" parent="1" source="vxrTX5jhvUEjVtBuJPQT-5">
          <mxGeometry relative="1" as="geometry">
            <mxPoint x="1510" y="-230" as="sourcePoint" />
            <mxPoint x="1520" y="-110" as="targetPoint" />
          </mxGeometry>
        </mxCell>
        <mxCell id="vxrTX5jhvUEjVtBuJPQT-7" value="&lt;span style=&quot;border-bottom: 1px dotted&quot;&gt;Numero Quartos&lt;/span&gt;" style="ellipse;whiteSpace=wrap;html=1;align=center;fillColor=#FFB366;" vertex="1" parent="1">
          <mxGeometry x="2150" y="355" width="80" height="30" as="geometry" />
        </mxCell>
        <mxCell id="vxrTX5jhvUEjVtBuJPQT-8" value="" style="endArrow=none;html=1;rounded=0;exitX=1;exitY=0.5;exitDx=0;exitDy=0;entryX=0;entryY=0.5;entryDx=0;entryDy=0;" edge="1" parent="1" source="m7RQZ_AODKtlvPJroXdu-3" target="vxrTX5jhvUEjVtBuJPQT-7">
          <mxGeometry relative="1" as="geometry">
            <mxPoint x="2110" y="345" as="sourcePoint" />
            <mxPoint x="2140" y="425" as="targetPoint" />
          </mxGeometry>
        </mxCell>
      </root>
    </mxGraphModel>
  </diagram>
</mxfile>
